<svg xmlns="http://www.w3.org/2000/svg" viewBox="0 0 705.76 434.68"><g id="freepik--background-complete--inject-43"><g><g><rect x="46.24" y="189.42" width="5.3" height="198.67" style="fill:#ebebeb"></rect><path d="M51.53,388.2s0-.37,0-1.06,0-1.72,0-3c0-2.69,0-6.56,0-11.53,0-10-.05-24.47-.08-42.36,0-35.78-.07-85.3-.12-140.53l.28.57H46.24c.56-1.14.16-.27.28-.51V224c0,11.16,0,22,0,32.51,0,21,0,40.43,0,57.79-.07,34.62-.12,60.8-.15,73.89l-.08-.18,4,.1,1,0a1.06,1.06,0,0,1,.33,0,1,1,0,0,1-.3,0l-1,0-4,.1h-.09v-.17c0-13.09-.07-39.27-.14-73.89,0-17.36,0-36.82,0-57.79C46,246,46,235.17,46,224v-17c0-2.86,0-5.73,0-8.63v-8.65c.13-.27-.28.52.29-.63h5.58v.57c0,55.39-.09,105.07-.12,141,0,17.83-.07,32.23-.09,42.23,0,4.91,0,8.74,0,11.39,0,1.26,0,2.23,0,2.94S51.53,388.2,51.53,388.2Z" style="fill:#e0e0e0"></path></g><g><rect x="12.56" y="117.26" width="67.35" height="67.35" rx="3.3" transform="translate(116.33 9.49) rotate(43.39)" style="fill:#ebebeb"></rect><path d="M47.24,191.75a5.07,5.07,0,0,1-3.48-1.38l-38-35.92a3.37,3.37,0,0,1-.13-4.76l35.91-38a5,5,0,0,1,3.54-1.58,5.1,5.1,0,0,1,3.63,1.38l36.75,34.75a5.07,5.07,0,0,1,.2,7.16L50.93,190.17A5.07,5.07,0,0,1,47.24,191.75ZM44.14,190a4.54,4.54,0,0,0,3.23,1.23,4.46,4.46,0,0,0,3.16-1.41L85.28,153a4.54,4.54,0,0,0-.18-6.4L48.34,111.9a4.56,4.56,0,0,0-3.23-1.24A4.51,4.51,0,0,0,42,112.08L6,150.06a2.84,2.84,0,0,0,.11,4Z" style="fill:#fff"></path><polygon points="39.99 142.88 39.99 157.73 30.46 150.73 39.99 142.88" style="fill:#fff"></polygon><rect x="36.84" y="147.79" width="22.51" height="5.02" style="fill:#fff"></rect></g></g><path d="M696.74,138.31c-1.87-5-3.79-14.33-6.94-18.65s-7.76-7.85-13.07-8.5-11.19,2.22-12.91,7.28c-.77-11.4-2.38-23.1-8.09-33s-16.35-17.67-27.75-17c-10.76.66-20,8.64-25.08,18.12s-6.87,20.36-8.55,31c-4.07-5-12.68-3.43-16.93,1.42s-5.33,11.63-6.24,18l125.56,1.28Z" style="fill:#f5f5f5"></path><path d="M124.65,28.5a8.34,8.34,0,0,0-5.5-3.58A5.11,5.11,0,0,0,113.72,28c-.32-4.79-1-9.71-3.4-13.88S103.44,6.66,98.64,7c-4.52.27-8.4,3.64-10.55,7.62s-2.89,8.57-3.6,13.05c-1.71-2.11-5.33-1.45-7.12.59s-2.25,4.9-2.63,7.59H128A35.48,35.48,0,0,0,124.65,28.5Z" style="fill:#ebebeb"></path><path d="M570.28,51.28a9.9,9.9,0,0,0-6.5-4.23c-2.64-.32-5.56,1.11-6.42,3.62-.38-5.67-1.18-11.48-4-16.4s-8.13-8.79-13.8-8.44c-5.34.32-9.92,4.3-12.46,9S523.66,45,522.83,50.25c-2-2.49-6.31-1.71-8.42.71s-2.65,5.78-3.1,8.95h63C573.35,57.42,571.85,53.43,570.28,51.28Z" style="fill:#ebebeb"></path><path d="M238.25,53.94c-2.07-2.82-5.08-5.14-8.55-5.56s-7.32,1.45-8.45,4.76c-.5-7.46-1.56-15.11-5.29-21.59S205.26,20,197.8,20.45c-7,.43-13.06,5.65-16.41,11.85s-4.49,13.32-5.59,20.28c-2.67-3.27-8.3-2.24-11.08.93s-3.49,7.61-4.08,11.79h82.87C242.29,62,240.31,56.77,238.25,53.94Z" style="fill:#f5f5f5"></path><path d="M659.47,16.76A6.49,6.49,0,0,0,655.19,14,4,4,0,0,0,651,16.36c-.25-3.73-.78-7.55-2.65-10.79S643-.21,639.24,0c-3.52.22-6.53,2.83-8.2,5.93s-2.25,6.66-2.8,10.14c-1.33-1.63-4.15-1.12-5.54.47s-1.74,3.8-2,5.89H662.1A27.67,27.67,0,0,0,659.47,16.76Z" style="fill:#f5f5f5"></path><g><path d="M370.88,133.89s-11.78,0-14.16,8.88-10.31,41.6-11.36,43.68-26.72,38.18-26.72,38.18l11,9.85S355.13,207.16,364,196.3c3.84-4.69,18.81-47.2,20.22-52.4S379.68,132.53,370.88,133.89Z" style="fill:#f5f5f5"></path><path d="M319.71,225.9s-5.08-2.15-5.68-2.09a67.25,67.25,0,0,0-8.64,4.09c-1.15.82-3,4.81-1.45,6.78l1,1.08s-.51,3.19,1.61,4.18,2.23.48,2.23.48-1.33,2.59,1.18,3.12l2.51.54s1,3,2.86,2.55,9.22-3.69,10.36-5.39,2.09-3.16,2.09-3.16l4.8-2.42-8.19-13Z" style="fill:#e0e0e0"></path><path d="M399.17,179.15s-66.08,36.58-60,56.69,60.05,57.58,60.05,57.58L411.47,283s-21.11-27.88-27-36.86c-4.41-6.72-13-11.79-13-11.79s37.29-12.8,51.89-20,20.13-11.65,21.23-22.12S443,176.67,441.32,172s-13.78-13.5-13.78-13.5Z" style="fill:#f5f5f5"></path><path d="M423.39,214.34c14.6-7.16,20.13-11.65,21.23-22.12S443,176.67,441.32,172s-13.78-13.5-13.78-13.5l-28.37,20.67a191.86,191.86,0,0,0-32.88,21.25l21.77,28.77Z" style="fill:#e0e0e0"></path><path d="M296.72,234.41s-12.14-4.94-13-8.09-2.43-5.72-4.72-3.43-3.39,5.81.18,10.1l12.05,7.64,5.49-4.5Z" style="fill:#e0e0e0"></path><path d="M274.6,253.64a11.66,11.66,0,0,0,4-4.11c1-2.15.71-4.38.38-6.66-.44-3-.61-7.9,3-9.17a2,2,0,0,0,1.35-2.38,2,2,0,0,0-2.38-1.35c-4.11,1.46-6,5.58-6.05,9.74,0,2.2.62,4.34.6,6.52,0,1.9-1.39,3-2.83,4.07a2,2,0,0,0-.69,2.64,2,2,0,0,0,2.65.7Z" style="fill:#e0e0e0"></path><g><path d="M296.72,399a61.13,61.13,0,1,1,61.12-61.13A61.2,61.2,0,0,1,296.72,399Zm0-121.25a60.13,60.13,0,1,0,60.12,60.12A60.19,60.19,0,0,0,296.72,277.78Z" style="fill:#e0e0e0"></path><path d="M296.72,404.09a66.19,66.19,0,1,1,66.19-66.19A66.27,66.27,0,0,1,296.72,404.09Zm0-128.37a62.19,62.19,0,1,0,62.19,62.18A62.25,62.25,0,0,0,296.72,275.72Z" style="fill:#e0e0e0"></path></g><g><path d="M487.68,399A61.13,61.13,0,1,1,548.8,337.9,61.21,61.21,0,0,1,487.68,399Zm0-121.25A60.13,60.13,0,1,0,547.8,337.9,60.2,60.2,0,0,0,487.68,277.78Z" style="fill:#e0e0e0"></path><path d="M487.68,404.09a66.19,66.19,0,1,1,66.18-66.19A66.27,66.27,0,0,1,487.68,404.09Zm0-128.37a62.19,62.19,0,1,0,62.18,62.18A62.25,62.25,0,0,0,487.68,275.72Z" style="fill:#e0e0e0"></path></g><g><rect x="400.18" y="379.08" width="19.62" height="7.02" transform="translate(-113.52 181.57) rotate(-22.01)" style="fill:#ebebeb"></rect><path d="M402.19,389.55v0L399.55,383h0l18.21-7.36v0l2.64,6.53h0ZM399.61,383l2.61,6.46,18.14-7.34-2.61-6.46Z" style="fill:#455a64"></path></g><path d="M409.75,382.08h0a3.35,3.35,0,0,1-3.05-3.63L409,351.73a3.35,3.35,0,0,1,3.62-3.05h0a3.35,3.35,0,0,1,3.05,3.62L413.37,379A3.36,3.36,0,0,1,409.75,382.08Z" style="fill:#ebebeb"></path><polygon points="426.95 257.55 434.99 222.05 441.27 222.05 433.62 259.51 426.95 257.55" style="fill:#f5f5f5"></polygon><rect x="315.4" y="231.74" width="7.15" height="20.33" transform="translate(-80.85 261.92) rotate(-40.04)" style="fill:#e0e0e0"></rect><path d="M292.3,337.76l31.17-82.39-6.22-8.21,7.15-5.26,7.32,8.71,97.53,2.9,5.94.75s34.37,55.9,40.43,63.5c6.47,8.11,14,18.21,14,18.21l-6.26,4.1s-17.09-20.89-25.63-35-24.68-40.44-24.68-40.44l-22.13,87.09-7.84-1.34,20.38-88.81-86.82-2.07,69.62,78.15-3.18,12.73-73.22-84.66L300.09,340Z" style="fill:#e0e0e0"></path><polygon points="409.99 343.85 482.82 334.48 484.06 339.96 409.99 351.73 409.99 343.85" style="fill:#e0e0e0"></polygon><circle cx="407.11" cy="350.47" r="17.52" style="fill:#e0e0e0"></circle><path d="M416.36,221.38a2.24,2.24,0,0,1-1.27-4,9.76,9.76,0,0,1,5.67-1.79c7.2-.23,47.21,0,47.21,0s1.47,2.09-1.34,4.4S456.14,224.6,452,224.6s-15.86-1.93-22.2-2.55C425.88,221.67,420.17,221.47,416.36,221.38Z" style="fill:#e0e0e0"></path><path d="M303.25,337.9a6.57,6.57,0,1,1-6.56-6.56A6.57,6.57,0,0,1,303.25,337.9Z" style="fill:#e0e0e0"></path><circle cx="486.17" cy="337.9" r="6.57" style="fill:#e0e0e0"></circle><path d="M306.42,260.12a16.5,16.5,0,0,1-11.09-5.86,11.27,11.27,0,0,1-1.85-11.16c1.63-3.89,5.27-5.51,9.29-5.79,5.14-.35,10.39,0,15.54.16q9.17.25,18.34.74c3.32.17,3.31-5,0-5.16q-9.42-.48-18.85-.75c-3.06-.08-6.12-.15-9.18-.19a49.79,49.79,0,0,0-8.46.34,14.48,14.48,0,0,0-11.65,9.28,16.15,16.15,0,0,0,2.14,14.83c3.71,5.24,9.52,8,15.77,8.71a2.59,2.59,0,0,0,2.58-2.58,2.63,2.63,0,0,0-2.58-2.57Z" style="fill:#e0e0e0"></path><g><rect x="397.54" y="318.01" width="19.62" height="7.02" transform="translate(916.16 423.58) rotate(153.06)" style="fill:#ebebeb"></rect><path d="M400.18,329.12v0L397,322.82h0l17.51-8.9,0,0,3.18,6.28h0Zm-3.13-6.27,3.16,6.21,17.44-8.87L414.49,314Z" style="fill:#455a64"></path></g><polygon points="426.95 254.73 428.27 248.91 436.4 248.91 435.18 255.58 427.66 257.26 426.95 254.73" style="fill:#e0e0e0"></polygon><circle cx="407.35" cy="350.87" r="10.01" style="fill:#ebebeb"></circle><path d="M397.65,214.61s-2.18,52.64-2,62.17,10.07,76.44,10.07,76.44l16.81.33s1.2-40.62,2-52.27-.21-22.23,0-26.09,6.4-21.06,7.89-27.88c2.87-13.09,5.12-27,6.86-30.62s7.31-18.66,7.61-22.5c1.15-14.76-9.26-9.8-9.26-9.8l-28.56,21Z" style="fill:#f5f5f5"></path><g><polygon points="405.82 355.23 403.22 333.39 423.23 332.95 424.38 355.47 417.64 362.43 407.72 360.62 405.82 355.23" style="fill:#e0e0e0"></polygon><g><path d="M386.25,379.2s7.46,1.29,13.62.06,15.09-4.48,18.38-5.63,13.24-1.1,13.54-4.62-7.42-15.46-7.42-15.46-1.17,3.93-4.6,4.18-10.28-.76-10.28-.76-3.39-4.14-5.37-4.09-.7,5.55-.7,5.55-4,7.26-7.15,9.08-3.14,2.85-7,3.39a10.29,10.29,0,0,0-5.51,2.15s-1.4,3.35-.37,4.37A10.44,10.44,0,0,0,386.25,379.2Z" style="fill:#ebebeb"></path><path d="M383.38,377.36a7.77,7.77,0,0,0,2.87,1.9s7.46,1.29,13.62.05,15.08-4.48,18.37-5.63,13.25-1.09,13.55-4.61a5.83,5.83,0,0,0-.48-2.88s-9.65,3.83-14.47,4.3-14.67,5-20.1,5.59a67.11,67.11,0,0,1-11.7,0l-1.9-.75C383,376.1,382.81,376.68,383.38,377.36Z" style="fill:#e0e0e0"></path><path d="M397.38,366.43a12.69,12.69,0,0,0,.86,1.7c.61.86,1.39,1.28,1.34,1.37a2.6,2.6,0,0,1-1.6-1.18A2.56,2.56,0,0,1,397.38,366.43Z" style="fill:#fff"></path><path d="M400.19,363.29a11,11,0,0,0,1.18,2,11.44,11.44,0,0,0,1.76,1.46,4,4,0,0,1-2.94-3.42Z" style="fill:#fff"></path><path d="M402.11,360.39c.08-.06.61.61,1.41,1.29s1.53,1.11,1.49,1.19a3.46,3.46,0,0,1-1.7-.95A3.61,3.61,0,0,1,402.11,360.39Z" style="fill:#fff"></path><path d="M421.75,365.43a4.44,4.44,0,0,1-1.25.41c-.79.2-1.89.43-3.12.63s-2.34.31-3.15.36a5.48,5.48,0,0,1-1.32,0c0-.1,2-.3,4.42-.69S421.73,365.34,421.75,365.43Z" style="fill:#fff"></path></g></g><path d="M396.36,249.52a2.28,2.28,0,0,1,0,.6c0,.45,0,1,0,1.71,0,1.57,0,3.71-.09,6.32s-.12,5.86-.19,9.36-.31,7.4,0,11.44c.13,2,.41,4,.65,5.89s.48,3.73.7,5.49l1.15,9.29c.3,2.6.54,4.72.72,6.28.07.69.13,1.26.18,1.7a2.58,2.58,0,0,1,0,.61,2.66,2.66,0,0,1-.13-.59l-.27-1.7c-.22-1.55-.53-3.66-.9-6.25s-.79-5.8-1.26-9.28c-.23-1.75-.48-3.58-.73-5.48s-.53-3.88-.67-5.92a109.4,109.4,0,0,1,0-11.49c.11-3.5.22-6.67.3-9.36s.2-4.75.26-6.31c0-.7.07-1.27.1-1.72A2,2,0,0,1,396.36,249.52Z" style="fill:#e0e0e0"></path><polygon points="340 250.86 343.59 254.99 388.06 256.11 385.18 252.19 340 250.86" style="fill:#e0e0e0"></polygon><polygon points="346.62 270.7 344.41 282.55 350.23 289.27 352.48 277.28 346.62 270.7" style="fill:#e0e0e0"></polygon><polygon points="355.06 280.18 352.75 292.17 358.56 298.9 360.85 286.68 355.06 280.18" style="fill:#fff"></polygon><g><g><g><path d="M353.79,106.39a73.48,73.48,0,0,0-2.12-12.61,25.8,25.8,0,0,0-6.1-11.12c-.45-.46-3.87-3.39-4.44-3.07-.4.23,2.24,3.21,2.19,3.67a21.91,21.91,0,0,0,3,12.7,57.72,57.72,0,0,0,7.48,10.43" style="fill:#e0e0e0"></path><path d="M314.7,104.73a19.14,19.14,0,0,1,8.92-24.39l.88-.45c9.79-4.34,18.94,1.56,23,11.46l14,32.56-3.77,19.47-10.06,1.79c-1.26-2.74-8.31-12.28-8.33-12.27s-9.87,3.29-14.69-5.79C322.32,122.72,318.27,113.3,314.7,104.73Z" style="fill:#f5f5f5"></path><path d="M339.34,132.9a24.76,24.76,0,0,0,10.08-9.64s.76,7-8.23,12.22Z" style="fill:#ebebeb"></path><path d="M321.05,111.71a1.46,1.46,0,0,0,1.93.67,1.4,1.4,0,0,0,.74-1.87,1.47,1.47,0,0,0-1.93-.67A1.4,1.4,0,0,0,321.05,111.71Z" style="fill:#e0e0e0"></path><path d="M318.72,107.76c.25.09.86-1.15,2.27-1.87s2.79-.54,2.86-.79-.29-.34-.91-.44a4.06,4.06,0,0,0-2.4.43,3.9,3.9,0,0,0-1.69,1.7C318.59,107.35,318.6,107.73,318.72,107.76Z" style="fill:#e0e0e0"></path><path d="M333.65,106a1.46,1.46,0,0,0,1.93.67,1.4,1.4,0,0,0,.74-1.87,1.46,1.46,0,0,0-1.93-.67A1.4,1.4,0,0,0,333.65,106Z" style="fill:#e0e0e0"></path><path d="M332.46,101.4c.25.08.86-1.16,2.27-1.88s2.79-.54,2.86-.79-.29-.34-.91-.44a4.11,4.11,0,0,0-2.39.43,3.88,3.88,0,0,0-1.7,1.7C332.33,101,332.34,101.36,332.46,101.4Z" style="fill:#e0e0e0"></path><path d="M333.17,114.39a10.34,10.34,0,0,0-2.5.76c-.37.15-.75.25-.94,0a2.13,2.13,0,0,1-.3-1.19c-.11-1-.23-2.13-.35-3.27-.53-4.65-1.11-8.39-1.29-8.37s.09,3.81.62,8.45c.13,1.14.27,2.23.39,3.27a2.35,2.35,0,0,0,.54,1.5,1,1,0,0,0,.86.22,2.35,2.35,0,0,0,.65-.22A10.65,10.65,0,0,0,333.17,114.39Z" style="fill:#e0e0e0"></path><path d="M331,98.25c.36.27,1.39-.71,2.86-1.48s2.85-1.12,2.81-1.56c0-.21-.45-.41-1.13-.44a5,5,0,0,0-2.47.61,4.85,4.85,0,0,0-1.85,1.71C330.89,97.67,330.84,98.12,331,98.25Z" style="fill:#e0e0e0"></path><path d="M316,102.47c.45.18,1.44-.73,2.81-1.43s2.67-1.05,2.77-1.52c0-.22-.31-.45-1-.5a5.25,5.25,0,0,0-4.5,2.38C315.76,102,315.77,102.38,316,102.47Z" style="fill:#e0e0e0"></path><path d="M350.24,98.5c.13-.14,5.33-5.08,8.34,1.27s-4,8.06-4.08,7.89S350.24,98.5,350.24,98.5Z" style="fill:#f5f5f5"></path><path d="M355.3,104.33s.15,0,.38,0a1.19,1.19,0,0,0,.83-.37,3.05,3.05,0,0,0,.1-3.06,4.06,4.06,0,0,0-1.06-1.44,1.42,1.42,0,0,0-1.24-.45.61.61,0,0,0-.5.61c0,.22.1.33.07.35s-.19,0-.26-.32a.76.76,0,0,1,.06-.52.86.86,0,0,1,.53-.45,1.74,1.74,0,0,1,1.63.43,4.2,4.2,0,0,1,1.22,1.59c.57,1.3.48,2.81-.31,3.51a1.3,1.3,0,0,1-1.09.31C355.39,104.48,355.28,104.35,355.3,104.33Z" style="fill:#ebebeb"></path><path d="M313.92,92.25c-1.29-.09.25-4.87,2.25-7.2,3-3.51,8.38-7.3,12.38-7.94,4.82-.77,9.34-.29,13.27,2.59a27.69,27.69,0,0,1,8.76,11.5,8.5,8.5,0,0,1,.91,4.31c-.24,1.83-1.54,3.51-.56,5.42a2.9,2.9,0,0,1,.24,2.25c-.59,1.78-2.56,1.28-3.76.41-2.56-1.84-4.1-4.75-5.55-7.56a20.46,20.46,0,0,1-2.41-6.25c-.18-1.2-.15-2.44-.39-3.64a4.24,4.24,0,0,0-1.93-3,4.46,4.46,0,0,0-.76-.28,7.32,7.32,0,0,0-7.18,1.8c-3,2.94-8.26,7.68-10.42,7.21a10.83,10.83,0,0,1-4.2-1.58Z" style="fill:#e0e0e0"></path><path d="M338.07,113.19c-.22.09.45,1.56-.33,3.18s-2.42,2.17-2.33,2.38.47.12,1.14-.16a4.07,4.07,0,0,0,2-1.91,3.55,3.55,0,0,0,.19-2.62C338.5,113.43,338.17,113.14,338.07,113.19Z" style="fill:#e0e0e0"></path></g><path d="M351.68,93.34c3.16-6,4.17-9.79,3.11-13.93l-49.27,23.84s5.28,2.38,9.1,1.44l-1-2.9S338,89.41,346,90.14l3.56.17Z" style="fill:#e0e0e0"></path><path d="M344.78,87.18s6.52,12.28,9,22.69c2.56,10.82-8.31,18.52-8.31,18.52s8.17-11.22,3.89-21.47c-3.88-9.29-8.16-18.1-8.16-18.1Z" style="fill:#ebebeb"></path></g><path d="M347.62,73.57s3.55,1.62,3.57,2.87c0,.9-17.62,2-17.62,2l.62-3.35,5.81-2.5Z" style="fill:#e0e0e0"></path><path d="M341.67,65.69s1.57.64.8,2.68l-.94,2.47a35.53,35.53,0,0,1,6.4,2.92s-7.6.09-11.74,3.38a.37.37,0,0,0,.3.65c3.4-.75,12.41-2.61,14.57-1.78a6,6,0,0,1,2.85,2.06,9.28,9.28,0,0,1,.66,9.15l-1.63,3.58-5.84-2.13a9.21,9.21,0,0,0-6.88.26c-5,2.23-14.72,5.59-16.89,6.63-1.82.87-14.7,8.24-17.24,7.79s-5.18-.7-4.33-2.89,5.43-13,11.13-19.62a37.24,37.24,0,0,1,12.48-9.47s14.57-6.59,16.3-5.68" style="fill:#ebebeb"></path><path d="M324,78.66a11.29,11.29,0,0,1,2.23-1.85,36.29,36.29,0,0,1,6.08-3.48,36.78,36.78,0,0,1,6.63-2.25,11.36,11.36,0,0,1,2.86-.45,23.77,23.77,0,0,1-2.77.81,49.85,49.85,0,0,0-6.5,2.38,50.69,50.69,0,0,0-6.09,3.3A21.4,21.4,0,0,1,324,78.66Z" style="fill:#e0e0e0"></path><path d="M333.13,79.66a.94.94,0,0,0-.54-.74,3.82,3.82,0,0,0-1.17-.45,3.33,3.33,0,0,0-2.89,1.38c-.69,1,.64,2.06,1.53,2a4.28,4.28,0,0,0,2.38-1.09A1.44,1.44,0,0,0,333.13,79.66Z" style="fill:#e0e0e0"></path><path d="M325,83.47a1,1,0,0,0-.55-.74,3.86,3.86,0,0,0-1.17-.44,3.31,3.31,0,0,0-2.89,1.38c-.69,1,.64,2.06,1.53,2a4.28,4.28,0,0,0,2.39-1.1A1.46,1.46,0,0,0,325,83.47Z" style="fill:#e0e0e0"></path></g><path d="M362.94,133.89s-11.79,0-14.16,8.88-10.31,41.6-11.37,43.68-26.71,38.18-26.71,38.18l11,9.85s25.52-27.32,34.39-38.18c3.83-4.69,18.81-47.2,20.22-52.4S371.74,132.53,362.94,133.89Z" style="fill:#f5f5f5"></path><path d="M441.27,169.12l-34.69,27.34-9.81,17s.59,9.19,0,25.47l36.47,4.78c3.75-11,6.5-21.22,9.17-27.69,1.54-3.75,6.5-18,6.82-21.8C450.43,179.43,441.27,169.12,441.27,169.12Z" style="fill:#e0e0e0"></path><path d="M344.21,139.87c-.09.5,9.89,28,13.25,31.9,2.94,3.43,27.8,15.63,38.22,20.6,0,0,2,4,1.93,4s15.22-6.6,20-9.56c4.32-2.7,13.05-7.39,16.54-10.58a56.78,56.78,0,0,1,8.28-6.63s1.12-2.16-18.7-18.7S385,122.64,370.45,120.19c-12.07-2-10-2-10-2Z" style="fill:#ebebeb"></path><path d="M309,226.57s-5.5-.46-6-.21a66.77,66.77,0,0,0-7,6.57c-.83,1.14-1.32,5.49.74,6.9l1.25.72s.5,3.19,2.83,3.48,2.27-.25,2.27-.25-.46,2.88,2.09,2.61l2.55-.28s1.9,2.58,3.51,1.54,7.62-6.37,8.17-8.34,1-3.66,1-3.66l3.81-3.79L312.35,222Z" style="fill:#e0e0e0"></path><path d="M364.07,179.32a2.72,2.72,0,0,1-.23.64l-.76,1.78c-.71,1.61-1.68,3.82-2.88,6.53l-2,4.5c-.19.4-.37.81-.56,1.23a7,7,0,0,1-.64,1.25,25.45,25.45,0,0,1-1.68,2.41c-2.45,3.16-5.35,6.45-8.39,9.89-6.11,6.87-11.79,12.95-15.93,17.33L326.06,230l-1.37,1.38a2.57,2.57,0,0,1-.5.45,3.58,3.58,0,0,1,.43-.53l1.29-1.44,4.81-5.27c4.06-4.44,9.69-10.56,15.8-17.43,3-3.43,5.94-6.71,8.4-9.83.57-.8,1.21-1.55,1.66-2.34a7.44,7.44,0,0,0,.64-1.22l.56-1.22c.75-1.6,1.44-3.1,2.07-4.47,1.26-2.68,2.29-4.87,3-6.45l.85-1.75A3.06,3.06,0,0,1,364.07,179.32Z" style="fill:#ebebeb"></path><path d="M340.17,170.51l24.73,7s10.24-27.22,11-32.77-1-17.07-10-18.28-16.43,5.87-19,16.91S340.17,170.51,340.17,170.51Z" style="fill:#ebebeb"></path><path d="M340.17,170.51s0-.11.07-.34.13-.59.23-1c.22-.93.54-2.24.94-3.92.84-3.46,2-8.41,3.53-14.52q.57-2.31,1.19-4.83c.42-1.67.81-3.43,1.36-5.21a24.36,24.36,0,0,1,6-10.18,16.43,16.43,0,0,1,5.41-3.52,14.3,14.3,0,0,1,6.67-.87,9.89,9.89,0,0,1,6.27,3,15.2,15.2,0,0,1,3.5,6.26,23.93,23.93,0,0,1,1,6.19,19.87,19.87,0,0,1-.14,3.09,28.48,28.48,0,0,1-.67,3c-1.09,3.84-2.35,7.5-3.55,11-2.43,7-4.79,13.39-6.87,18.91l-.07.18-.18-.05-18.09-5.2L341.85,171l-1.26-.38-.42-.14a2.81,2.81,0,0,1,.47.11L342,171l5,1.35,18,4.95-.25.13c2.05-5.54,4.37-11.93,6.78-18.94,1.2-3.5,2.44-7.16,3.52-11a29.53,29.53,0,0,0,.65-2.9,20,20,0,0,0,.14-3,23.71,23.71,0,0,0-1-6.05,14.86,14.86,0,0,0-3.37-6,9.35,9.35,0,0,0-6-2.83,13.68,13.68,0,0,0-6.43.82,15.75,15.75,0,0,0-5.24,3.4,23.67,23.67,0,0,0-5.93,10c-.55,1.75-.95,3.49-1.38,5.14s-.83,3.25-1.22,4.77c-1.56,6.07-2.83,11-3.72,14.43l-1,4c-.12.43-.21.78-.29,1A2.3,2.3,0,0,1,340.17,170.51Z" style="fill:#e0e0e0"></path><rect x="351.53" y="147.92" width="15.9" height="4.9" transform="translate(54.09 -91.65) rotate(15.7)" style="fill:#fff"></rect></g><polygon points="285.79 434.68 88.92 434.68 99.13 425.07 296 425.07 285.79 434.68" style="fill:#e0e0e0"></polygon><polygon points="624.66 434.68 427.79 434.68 438 425.07 634.87 425.07 624.66 434.68" style="fill:#e0e0e0"></polygon></g><g id="freepik--Floor--inject-43"><path d="M703.39,388.13c0,.15-154.67.27-345.42.27s-345.45-.12-345.45-.27,154.63-.27,345.45-.27S703.39,388,703.39,388.13Z" style="fill:#263238"></path></g><g id="freepik--Birds--inject-43"><g><path d="M350.48,13.08s-.71-.25-2-.54a16.22,16.22,0,0,0-5.66-.22,15.28,15.28,0,0,0-7.62,3.29,15.88,15.88,0,0,0-5.39,8.55l0,.09-.16.61-.23-.58a17,17,0,0,0-6.45-7.78,16.38,16.38,0,0,0-7.87-2.62,17.54,17.54,0,0,0-5.62.51c-1.3.35-2,.65-2,.61a3.88,3.88,0,0,1,.49-.24,13.3,13.3,0,0,1,1.47-.52,16.65,16.65,0,0,1,5.68-.65,16.48,16.48,0,0,1,8.06,2.6,17.24,17.24,0,0,1,6.62,7.94l-.39,0,0-.09a16,16,0,0,1,5.55-8.75A15.36,15.36,0,0,1,342.76,12a15.54,15.54,0,0,1,5.73.36,9.92,9.92,0,0,1,1.49.47A3.32,3.32,0,0,1,350.48,13.08Z" style="fill:#263238"></path><path d="M454.9,33.17s-.4-.11-1.12-.26a9.14,9.14,0,0,0-3.1-.09,8.42,8.42,0,0,0-4.15,1.81,8.6,8.6,0,0,0-2.92,4.66v.05l-.16.61-.24-.58a9.2,9.2,0,0,0-3.5-4.24,8.88,8.88,0,0,0-4.29-1.45,9.62,9.62,0,0,0-3.08.25c-.71.18-1.09.33-1.11.3s.09-.07.27-.15a6.14,6.14,0,0,1,.8-.3,8.76,8.76,0,0,1,3.14-.39,9,9,0,0,1,4.47,1.42,9.59,9.59,0,0,1,3.69,4.41l-.4,0,0-.06a8.89,8.89,0,0,1,3.08-4.85,8.5,8.5,0,0,1,4.35-1.81,8.69,8.69,0,0,1,3.17.22,5.75,5.75,0,0,1,.82.28C454.81,33.11,454.91,33.16,454.9,33.17Z" style="fill:#263238"></path><path d="M392.45,44a14.46,14.46,0,0,1-1.07,1.22,26.16,26.16,0,0,0-2.62,3.54,25.74,25.74,0,0,0-3.89,13.76v.18l-.41,0A22.64,22.64,0,0,0,382,55.26a23.75,23.75,0,0,0-7.16-8c-.85-.59-1.34-.88-1.32-.91s.14,0,.38.18.6.31,1,.6a21.12,21.12,0,0,1,3.44,2.74,22.8,22.8,0,0,1,3.95,5.2,22.34,22.34,0,0,1,2.59,7.58l-.4,0v-.18a25.3,25.3,0,0,1,4.06-13.93,23.18,23.18,0,0,1,2.74-3.49c.36-.39.67-.65.87-.84A1.47,1.47,0,0,1,392.45,44Z" style="fill:#263238"></path></g></g><g id="freepik--Plants--inject-43"><g><path d="M683.6,336a9.9,9.9,0,0,1,5.64,5.31,17.44,17.44,0,0,1,1.41,7.77c-.1,5.14-2.52,10.54-5.25,14.89-4.63-3.33-6.22-9.76-6.82-13.07-1-5.24.5-15.27,5-14.9" style="fill:#FF725E"></path><path d="M691.16,371.94a8.45,8.45,0,0,1,2-8.24,11.24,11.24,0,0,1,8-3.34,4.74,4.74,0,0,1,3.76,1.28,3.6,3.6,0,0,1,.4,3.64,7.33,7.33,0,0,1-2.45,2.91c-3.49,2.67-7.37,4.62-11.68,3.75" style="fill:#FF725E"></path><path d="M687.12,388.05a6.93,6.93,0,0,1,.06-1.06c.06-.75.15-1.71.25-2.87a29.79,29.79,0,0,1,2.08-9.3,18.08,18.08,0,0,1,5.83-7.48,12.15,12.15,0,0,1,2.53-1.41,7.44,7.44,0,0,1,.74-.27,1,1,0,0,1,.27-.06,19,19,0,0,0-3.38,1.95,18.75,18.75,0,0,0-5.65,7.42,32,32,0,0,0-2.16,9.17c-.14,1.21-.27,2.19-.37,2.86A5,5,0,0,1,687.12,388.05Z" style="fill:#263238"></path><path d="M683.16,343.78a1.52,1.52,0,0,1,.1.45c0,.34.12.77.2,1.3.16,1.14.38,2.78.64,4.81.51,4.06,1.14,9.68,1.69,15.91s.93,11.87,1.14,16c.1,2,.18,3.7.21,4.84q0,.81,0,1.32a2,2,0,0,1,0,.46,2.9,2.9,0,0,1-.06-.46c0-.34-.06-.77-.1-1.31-.08-1.19-.2-2.83-.33-4.84-.28-4.08-.7-9.72-1.25-15.94s-1.14-11.84-1.58-15.91l-.53-4.82-.13-1.31A3.17,3.17,0,0,1,683.16,343.78Z" style="fill:#263238"></path><path d="M684,375.73A19.77,19.77,0,0,0,672,362.32c-1.49-.55-3.4-.82-4.48.35s-.64,3.06.08,4.49a16.88,16.88,0,0,0,16.42,9" style="fill:#FF725E"></path><path d="M673.1,367.08a5.71,5.71,0,0,1,.95.31,11.11,11.11,0,0,1,1.08.45c.4.21.89.4,1.38.7a17.54,17.54,0,0,1,1.6,1,18.6,18.6,0,0,1,1.73,1.3,21.36,21.36,0,0,1,3.38,3.6,20.86,20.86,0,0,1,2.41,4.32,16.49,16.49,0,0,1,.7,2,15.33,15.33,0,0,1,.43,1.83,15,15,0,0,1,.22,1.54,8.64,8.64,0,0,1,.07,1.17,4.75,4.75,0,0,1,0,1c-.08,0-.07-1.42-.53-3.64a16.46,16.46,0,0,0-.46-1.8c-.18-.64-.45-1.3-.72-2a20.92,20.92,0,0,0-5.71-7.79,18.77,18.77,0,0,0-1.68-1.31c-.53-.4-1.07-.71-1.55-1C674.42,367.62,673.07,367.16,673.1,367.08Z" style="fill:#263238"></path></g><g><path d="M35.11,336a9.89,9.89,0,0,1,5.65,5.31,17.44,17.44,0,0,1,1.41,7.77c-.11,5.14-2.52,10.54-5.25,14.89-4.63-3.33-6.22-9.76-6.83-13.07-.95-5.24.51-15.27,5-14.9" style="fill:#FF725E"></path><path d="M42.68,371.94a8.45,8.45,0,0,1,2-8.24,11.22,11.22,0,0,1,8-3.34,4.74,4.74,0,0,1,3.76,1.28,3.63,3.63,0,0,1,.4,3.64,7.41,7.41,0,0,1-2.45,2.91c-3.5,2.67-7.37,4.62-11.68,3.75" style="fill:#FF725E"></path><path d="M38.64,388.05a6,6,0,0,1,0-1.06c.07-.75.16-1.71.26-2.87a29.73,29.73,0,0,1,2.07-9.3,18.17,18.17,0,0,1,5.84-7.48,12.15,12.15,0,0,1,2.53-1.41,7.44,7.44,0,0,1,.74-.27.85.85,0,0,1,.27-.06A19.27,19.27,0,0,0,47,367.55,18.84,18.84,0,0,0,41.36,375a32.25,32.25,0,0,0-2.15,9.17c-.15,1.21-.27,2.19-.37,2.86A6,6,0,0,1,38.64,388.05Z" style="fill:#263238"></path><path d="M34.68,343.78a2.71,2.71,0,0,1,.09.45c.06.34.12.77.2,1.3.17,1.14.39,2.78.65,4.81.51,4.06,1.14,9.68,1.69,15.91s.92,11.87,1.13,16c.11,2,.18,3.7.22,4.84q0,.81,0,1.32a2,2,0,0,1,0,.46,1.91,1.91,0,0,1-.06-.46c0-.34-.06-.77-.11-1.31-.08-1.19-.19-2.83-.33-4.84-.28-4.08-.69-9.72-1.24-15.94s-1.14-11.84-1.59-15.91c-.21-2-.39-3.63-.52-4.82l-.13-1.31A2,2,0,0,1,34.68,343.78Z" style="fill:#263238"></path><path d="M35.56,375.73a19.77,19.77,0,0,0-12.08-13.41c-1.5-.55-3.41-.82-4.48.35s-.64,3.06.07,4.49a16.89,16.89,0,0,0,16.43,9" style="fill:#FF725E"></path><path d="M24.62,367.08a5.71,5.71,0,0,1,.95.31,10.1,10.1,0,0,1,1.07.45c.41.21.9.4,1.39.7a17.54,17.54,0,0,1,1.6,1,18.52,18.52,0,0,1,1.72,1.3,21.39,21.39,0,0,1,3.39,3.6,21.82,21.82,0,0,1,2.41,4.32,20.64,20.64,0,0,1,.7,2,15.33,15.33,0,0,1,.43,1.83,14.74,14.74,0,0,1,.21,1.54,8.83,8.83,0,0,1,.08,1.17,4.75,4.75,0,0,1,0,1c-.08,0-.07-1.42-.53-3.64a16.61,16.61,0,0,0-.47-1.8,18.1,18.1,0,0,0-.72-2,22.46,22.46,0,0,0-2.39-4.23,22.39,22.39,0,0,0-3.31-3.56,18.77,18.77,0,0,0-1.68-1.31c-.53-.4-1.07-.71-1.55-1C25.93,367.62,24.59,367.16,24.62,367.08Z" style="fill:#263238"></path></g></g><g id="freepik--character-2--inject-43"><g><g><path d="M501,214.1c-1,2.09-37.71,25.08-37.71,25.08l10.19,9s37.48-13.44,46.25-24.38L518,187.34l-21.31-.11Z" style="fill:#ae7461"></path><path d="M468.64,234.77s-5.09-2.16-5.68-2.09a68.52,68.52,0,0,0-8.65,4.08c-1.15.83-3,4.81-1.45,6.79l1,1.08s-.51,3.19,1.61,4.18,2.23.48,2.23.48-1.33,2.58,1.18,3.12l2.51.54s1,3,2.86,2.55,9.22-3.69,10.36-5.39,2.09-3.16,2.09-3.16l4.81-2.42-8.2-13Z" style="fill:#263238"></path></g><path d="M552.57,185.18s-66.08,36.59-60,56.7,60.05,57.58,60.05,57.58L564.87,289s-21.1-27.88-27-36.86c-4.41-6.71-13-11.78-13-11.78s37.28-12.81,51.88-20,20.13-11.66,21.23-22.13-1.65-15.55-3.3-20.23-13.78-13.5-13.78-13.5Z" style="fill:#263238"></path><g><g><path d="M454.76,405l-1.67-28.31,3.32,28.16ZM425,399.6l-.71-.34,12.3-24.6,11.67-24.9L437.37,373l11.48-23-11.48,23ZM484.89,394l-32-44.75,32,44.72Zm-83.13-13.28,20.69-15.92-21.24,15.18,21.27-15.19,22.87-17.6.61.82-22.4,16Zm51.38-3.14L450,350.21l3.11,26.46Zm50.95-5.95-23.7-12.64-25.78-11.28.95-2,24.27,12.94L505,369.71l-24.6-10.77ZM390,353.15l-.21-1.42L417,348.32l27.09-4.73L418,348.2l26.32-3.29L418,348.2Zm121.18-10.92h-55l55-.05Zm-66.81-2.52-26.41-8.25-26.21-7.76,23.53,6.92-23.41-7.32,23.42,7.32-23.42-7.32,23.55,7.36,29.1,8.56Zm-26.4-8.25.15,0Zm37.92,8.16,24.92-9.34-25.4,7.94,25.4-7.94,26.58-10,.52,1.5L481.62,330Zm-1.09-2.84L453,335.2l19.45-19.45,17.8-21-17.38,20.54,19-19-19,19Zm-8.77-.44-19.46-19.46L406.38,298.2,425.66,316,407.1,297.44,425.67,316l21.12,19.49Zm2.71-1.93-6.93-23.58-9.08-29,.49-.15L440.94,308l8.16,26.26-7.33-23.45Zm2.73,0,5.49-23.32-5.81,23.24,5.81-23.24L464,280.84l.42.1-6.67,26.69Z" style="fill:#e0e0e0"></path><g><path d="M450.09,405.18a62.13,62.13,0,1,1,62.12-62.12A62.2,62.2,0,0,1,450.09,405.18Zm0-121.25a59.13,59.13,0,1,0,59.12,59.13A59.2,59.2,0,0,0,450.09,283.93Z" style="fill:#e0e0e0"></path><path d="M450.09,409.24a66.19,66.19,0,1,1,66.18-66.18A66.26,66.26,0,0,1,450.09,409.24Zm0-128.37a62.19,62.19,0,1,0,62.18,62.19A62.25,62.25,0,0,0,450.09,280.87Z" style="fill:#263238"></path><path d="M509.3,343.25s0-.32-.05-1,0-1.58-.13-2.81a59.24,59.24,0,0,0-23.29-43.19,59,59,0,0,0-24.85-11,59,59,0,1,0,0,115.94A57.45,57.45,0,0,0,474.56,397a58.36,58.36,0,0,0,11.28-6.74A59.24,59.24,0,0,0,509.12,347c.11-1.24.09-2.18.13-2.82s.05-1,.05-1,0,1.31-.08,3.78a58.12,58.12,0,0,1-1.6,10.72,59.2,59.2,0,0,1-6.51,15.85,59.8,59.8,0,0,1-15,16.91,59.23,59.23,0,0,1-25,11.15,59.43,59.43,0,1,1,0-116.81,58.91,58.91,0,0,1,25,11.14,60,60,0,0,1,15.05,16.92,59.4,59.4,0,0,1,6.51,15.85,58.16,58.16,0,0,1,1.6,10.71C509.34,342,509.3,343.25,509.3,343.25Z" style="fill:#263238"></path></g></g><g><path d="M644.24,405.18l-1.61-27.46-3.17-27.31,3.12,26.46L641,350.27l1.57,26.6L645.89,405Zm-29.79-5.38-.72-.34,13.12-26.24Zm59.92-5.65-32-44.76,32,44.73Zm-83.13-13.28L611.94,365l-21.25,15.18L612,364.93l22.88-17.59.61.82-22.41,16Zm34.79-6L637.71,350l-10.86,23.26Zm67.54-3.08-23.7-12.64-25.78-11.28.95-2,24.27,12.95,25.17,11.06-24.6-10.76ZM579.45,353.35l-.24-1.62,27.31-3.21,27.09-4.73-26.22,4.63,26.44-3.11-26.44,3.11Zm121.18-10.92h-55l55-.05Zm-66.82-2.53-26.4-8.25-26.21-7.76,23.53,6.92-23.41-7.31,23.42,7.32-23.42-7.32,23.54,7.35,29.1,8.56Zm-26.4-8.25.15.05Zm37.93,8.17,24.92-9.34-25.4,7.93,25.4-7.93,26.58-10,.51,1.5-26.25,8.2Zm-1.1-2.84-1.71-1.58L662,316l17.79-21-17.38,20.54,19-19-19,19Zm-8.76-.45L616,317.07,595.86,298.4l19.28,17.8-18.55-18.56,18.57,18.57,21.11,19.49Zm5.44-1.95,5.48-23.32.86-3.44Zm-2.34-.1L631.25,311l-.83-2.81Zm7.82-23.22L653.51,281l.42.1ZM631.25,311l-9.08-29,.5-.15Z" style="fill:#e0e0e0"></path><g><path d="M639.57,405.38a62.13,62.13,0,1,1,62.13-62.13A62.2,62.2,0,0,1,639.57,405.38Zm0-121.25a59.13,59.13,0,1,0,59.13,59.12A59.19,59.19,0,0,0,639.57,284.13Z" style="fill:#e0e0e0"></path><path d="M639.57,409.44a66.19,66.19,0,1,1,66.19-66.19A66.26,66.26,0,0,1,639.57,409.44Zm0-128.37a62.19,62.19,0,1,0,62.19,62.18A62.25,62.25,0,0,0,639.57,281.07Z" style="fill:#263238"></path><path d="M698.79,343.45s0-.32,0-1,0-1.58-.14-2.81a59.19,59.19,0,0,0-23.28-43.19,59,59,0,0,0-24.86-11,59,59,0,1,0,0,115.94,59,59,0,0,0,24.85-11,59.09,59.09,0,0,0,23.28-43.19c.11-1.23.09-2.18.14-2.81s0-1,0-1,0,1.3-.08,3.78A58.44,58.44,0,0,1,697.1,358a59.09,59.09,0,0,1-6.5,15.84,60,60,0,0,1-15.05,16.92,59.23,59.23,0,0,1-25,11.15,59.43,59.43,0,1,1,0-116.82,59.23,59.23,0,0,1,25,11.15,59.83,59.83,0,0,1,15,16.92,58.21,58.21,0,0,1,8.12,26.56C698.83,342.15,698.79,343.45,698.79,343.45Z" style="fill:#263238"></path></g></g><path d="M450.12,240.44s-12.14-4.93-13-8.08-2.43-5.73-4.72-3.44-3.38,5.82.18,10.1l12.05,7.65,5.49-4.5Z" style="fill:#263238"></path><path d="M428,259.67a11.63,11.63,0,0,0,4-4.1c1-2.15.71-4.39.38-6.66-.43-3-.61-7.91,3-9.18a2,2,0,0,0,1.35-2.37,1.93,1.93,0,0,0-2.37-1.35c-4.12,1.46-6,5.58-6.05,9.73,0,2.2.61,4.34.6,6.53,0,1.9-1.4,3-2.83,4.06a2,2,0,0,0-.7,2.65,2,2,0,0,0,2.65.69Z" style="fill:#263238"></path><polygon points="580.35 263.59 588.4 228.08 594.67 228.08 587.02 265.55 580.35 263.59" style="fill:#e0e0e0"></polygon><path d="M445.7,343.8l31.18-82.4-6.23-8.2,7.15-5.27,7.32,8.72,97.53,2.9,5.94.74S623,316.2,629,323.79c6.47,8.12,14,18.22,14,18.22l-6.26,4.1s-17.09-20.89-25.63-35-24.68-40.43-24.68-40.43l-22.13,87.09-7.84-1.34,20.39-88.82-86.83-2.06,69.63,78.15-3.19,12.73-73.22-84.66L453.49,346Z" style="fill:#FF725E"></path><polygon points="563.39 349.88 636.22 340.51 637.46 346 563.39 357.77 563.39 349.88" style="fill:#FF725E"></polygon><path d="M569.76,227.42a2.24,2.24,0,0,1-1.27-4,9.69,9.69,0,0,1,5.67-1.8c7.2-.23,47.22,0,47.22,0s1.46,2.09-1.35,4.41-10.49,4.63-14.64,4.63-15.86-1.93-22.2-2.55C579.28,227.7,573.58,227.51,569.76,227.42Z" style="fill:#455a64"></path><path d="M459.82,266.15a16.51,16.51,0,0,1-11.09-5.85,11.31,11.31,0,0,1-1.85-11.16c1.63-3.9,5.28-5.52,9.29-5.79,5.14-.36,10.39,0,15.54.16q9.18.26,18.34.73c3.32.17,3.31-5,0-5.15q-9.42-.5-18.85-.75c-3.06-.09-6.12-.15-9.18-.2a50.89,50.89,0,0,0-8.46.35,14.49,14.49,0,0,0-11.65,9.28,16.13,16.13,0,0,0,2.15,14.82c3.7,5.25,9.51,8,15.76,8.72a2.6,2.6,0,0,0,2.58-2.58,2.65,2.65,0,0,0-2.58-2.58Z" style="fill:#e0e0e0"></path><polygon points="580.35 260.77 581.68 254.94 589.81 254.94 588.58 261.61 581.06 263.3 580.35 260.77" style="fill:#FF725E"></polygon><polygon points="493.4 256.89 497 261.02 541.46 262.15 538.58 258.23 493.4 256.89" style="fill:#e0e0e0"></polygon><polygon points="500.02 276.73 497.81 288.58 503.63 295.31 505.88 283.31 500.02 276.73" style="fill:#e0e0e0"></polygon><polygon points="508.46 286.21 506.15 298.21 511.97 304.93 514.25 292.71 508.46 286.21" style="fill:#263238"></polygon><g><circle cx="639.57" cy="343.94" r="6.57" style="fill:#e0e0e0"></circle><path d="M646.14,343.94c-.06,0,0-.59-.31-1.58a6.51,6.51,0,0,0-2.4-3.49,6.38,6.38,0,0,0-6-.87,6.21,6.21,0,0,0-2.92,2.21,6.3,6.3,0,0,0,0,7.45,6.21,6.21,0,0,0,2.92,2.21,6.38,6.38,0,0,0,6-.87,6.51,6.51,0,0,0,2.4-3.49c.27-1,.25-1.58.31-1.57s0,.14,0,.42a4.7,4.7,0,0,1-.14,1.2,6.45,6.45,0,0,1-2.37,3.74,6.76,6.76,0,0,1-9.59-1.33,6.79,6.79,0,0,1,3.18-10.43,6.72,6.72,0,0,1,6.41,1,6.45,6.45,0,0,1,2.37,3.74,4.7,4.7,0,0,1,.14,1.2A1.21,1.21,0,0,1,646.14,343.94Z" style="fill:#263238"></path></g><g><circle cx="450.06" cy="343.06" r="6.57" style="fill:#e0e0e0"></circle><path d="M456.62,343.06c-.05,0,0-.59-.3-1.58a6.58,6.58,0,0,0-2.41-3.49,6.33,6.33,0,0,0-8.93,8.79,6.19,6.19,0,0,0,2.93,2.21,6.39,6.39,0,0,0,6-.86,6.61,6.61,0,0,0,2.41-3.49c.27-1,.25-1.59.3-1.58a1.24,1.24,0,0,1,0,.42,5.93,5.93,0,0,1-.14,1.21,6.53,6.53,0,0,1-2.37,3.74,6.79,6.79,0,0,1-10.93-5.37,6.87,6.87,0,0,1,1.34-4,6.66,6.66,0,0,1,3.18-2.36,6.73,6.73,0,0,1,6.4,1,6.5,6.5,0,0,1,2.38,3.74,5.93,5.93,0,0,1,.14,1.21A1.3,1.3,0,0,1,456.62,343.06Z" style="fill:#263238"></path></g></g><g><rect x="553.58" y="384.62" width="19.62" height="7.02" transform="translate(-104.41 239.47) rotate(-22.01)" style="fill:#263238"></rect><path d="M555.6,395.09v0L553,388.54h0l18.21-7.36v0l2.64,6.53h0ZM553,388.57l2.61,6.46,18.14-7.34-2.61-6.46Z" style="fill:#455a64"></path></g><g><path d="M563.15,388.11h0a3.34,3.34,0,0,1-3-3.62l2.3-26.73a3.34,3.34,0,0,1,3.62-3h0a3.35,3.35,0,0,1,3.05,3.62l-2.3,26.72A3.36,3.36,0,0,1,563.15,388.11Z" style="fill:#263238"></path><path d="M563.15,388.11s.27,0,.75-.08a3.39,3.39,0,0,0,1.85-1,3.3,3.3,0,0,0,.75-1.3,9.66,9.66,0,0,0,.22-1.83c.11-1.34.22-2.87.35-4.54.28-3.39.6-7.39,1-11.83.18-2.23.38-4.56.58-7,0-.61.11-1.22.16-1.83a3.62,3.62,0,0,0-.14-1.74,3.07,3.07,0,0,0-5.57-.48,3.64,3.64,0,0,0-.43,1.68c-.06.62-.11,1.23-.16,1.84-.22,2.42-.42,4.75-.62,7-.4,4.43-.77,8.43-1.08,11.82-.16,1.67-.3,3.19-.43,4.54a9.92,9.92,0,0,0-.1,1.83,3.3,3.3,0,0,0,2.18,2.69c.46.16.73.17.72.2a2.31,2.31,0,0,1-.76-.1,3.4,3.4,0,0,1-1.78-1.26,3.44,3.44,0,0,1-.61-1.5,9.3,9.3,0,0,1,0-1.89c.11-1.35.22-2.87.35-4.55.28-3.38.61-7.39,1-11.82.18-2.23.38-4.57.58-7,0-.6.11-1.22.16-1.83a4.1,4.1,0,0,1,.49-1.9,3.61,3.61,0,0,1,6.54.56,4.15,4.15,0,0,1,.17,2c-.06.62-.11,1.23-.16,1.83-.22,2.42-.42,4.76-.62,7-.41,4.44-.77,8.44-1.08,11.82-.16,1.67-.3,3.19-.43,4.54a9.26,9.26,0,0,1-.27,1.88,3.57,3.57,0,0,1-.86,1.36,3.27,3.27,0,0,1-2,.94A2.16,2.16,0,0,1,563.15,388.11Z" style="fill:#455a64"></path></g><rect x="468.8" y="237.77" width="7.15" height="20.33" transform="translate(-48.77 362.03) rotate(-40.04)" style="fill:#e0e0e0"></rect><circle cx="560.52" cy="356.51" r="17.52" style="fill:#e0e0e0"></circle><g><rect x="550.94" y="323.55" width="19.62" height="7.02" transform="translate(1208.83 364.55) rotate(153.06)" style="fill:#263238"></rect><path d="M553.59,334.66l0,0-3.19-6.28h0l17.51-8.9v0l3.19,6.28h0Zm-3.14-6.27,3.16,6.21,17.44-8.87-3.16-6.21Z" style="fill:#455a64"></path></g><circle cx="560.75" cy="356.41" r="10.01" style="fill:#263238"></circle><g><path d="M561,327.06h0a3.35,3.35,0,0,1,3.34,3.34v26.83a3.34,3.34,0,0,1-3.34,3.34h0a3.34,3.34,0,0,1-3.35-3.34V330.4A3.35,3.35,0,0,1,561,327.06Z" style="fill:#263238"></path><path d="M561,327.06s-.27,0-.74.14a3.32,3.32,0,0,0-1.76,1.13,3.44,3.44,0,0,0-.64,1.36,9.75,9.75,0,0,0-.06,1.83c0,1.36,0,2.88,0,4.56,0,3.4,0,7.42.06,11.87,0,2.24,0,4.58,0,7v1.84a3.62,3.62,0,0,0,.29,1.71,3.07,3.07,0,0,0,5.59,0,3.62,3.62,0,0,0,.29-1.71V355c0-2.43,0-4.77,0-7,0-4.45,0-8.47,0-11.87,0-1.68,0-3.2,0-4.56a9,9,0,0,0-.06-1.83,3.26,3.26,0,0,0-2.39-2.49c-.48-.12-.74-.11-.74-.14a2.09,2.09,0,0,1,.76,0,3.39,3.39,0,0,1,2.62,2.54,9,9,0,0,1,.11,1.89c0,1.36,0,2.88,0,4.56,0,3.4,0,7.42.06,11.87,0,2.24,0,4.58,0,7v1.84a4.13,4.13,0,0,1-.33,1.93,3.61,3.61,0,0,1-6.57,0,4.13,4.13,0,0,1-.33-1.93c0-.62,0-1.23,0-1.84,0-2.43,0-4.77,0-7,0-4.45,0-8.47.06-11.87,0-1.68,0-3.2,0-4.56a9,9,0,0,1,.11-1.89,3.52,3.52,0,0,1,.73-1.43,3.38,3.38,0,0,1,1.89-1.11A2.16,2.16,0,0,1,561,327.06Z" style="fill:#455a64"></path></g><path d="M481.89,202.86a1.56,1.56,0,0,1,0-.34c0-.26,0-.6,0-1,0-1,.05-2.31.08-4,.08-3.56.2-8.65.34-14.94,0-1.58.08-3.24.13-5s.06-3.53.21-5.39a24.35,24.35,0,0,1,3.69-11.23,16.22,16.22,0,0,1,4.53-4.59,14.29,14.29,0,0,1,6.33-2.28,9.9,9.9,0,0,1,6.76,1.57,15.48,15.48,0,0,1,4.77,5.36,24,24,0,0,1,2.28,5.84,20,20,0,0,1,.52,3,28,28,0,0,1,0,3c-.24,4-.68,7.83-1.11,11.52-.87,7.37-1.8,14.1-2.66,19.95l0,.19-.19,0-18.79-1.2-5.1-.35-1.31-.1a1.9,1.9,0,0,1-.44,0h.48l1.36.06,5.15.24,18.67,1-.22.18c.82-5.85,1.72-12.59,2.57-20,.42-3.68.85-7.52,1.08-11.48a27,27,0,0,0,0-3,19.1,19.1,0,0,0-.51-3,23.52,23.52,0,0,0-2.23-5.7,14.84,14.84,0,0,0-4.59-5.18,9.34,9.34,0,0,0-6.41-1.5,13.83,13.83,0,0,0-6.11,2.19,15.72,15.72,0,0,0-4.4,4.43,23.82,23.82,0,0,0-3.65,11c-.17,1.83-.18,3.61-.25,5.32s-.11,3.35-.17,4.92c-.22,6.27-.41,11.35-.54,14.9-.07,1.74-.13,3.11-.16,4.08,0,.44,0,.8-.06,1.07A1.82,1.82,0,0,1,481.89,202.86Z" style="fill:#263238"></path><g><g><g><g><g><path d="M484.48,138.87A73.68,73.68,0,0,0,479,127.29a25.83,25.83,0,0,0-8.86-9.07c-.56-.32-4.64-2.22-5.1-1.76s3,2.49,3.09,2.94a21.94,21.94,0,0,0,6.29,11.43,57.93,57.93,0,0,0,10,8" style="fill:#263238"></path><path d="M446.37,147.77a19.14,19.14,0,0,1,2-25.88l.73-.68c8.26-6.81,18.66-3.59,25.24,4.86l22.23,27.6,1.6,19.76-11.37,5.47c-1.95-2.3-9.14-10.63-9.16-10.61s-8.63,5.81-15.71-1.64C458.56,163.05,452.12,155.07,446.37,147.77Z" style="fill:#ae7461"></path><path d="M477.68,168.29a24.83,24.83,0,0,0,7.12-12s2.89,7.86-5.26,14.15Z" style="fill:#6f4439"></path><path d="M455.22,152.31a1.47,1.47,0,0,0,2,.12,1.4,1.4,0,0,0,.21-2,1.47,1.47,0,0,0-2-.13A1.42,1.42,0,0,0,455.22,152.31Z" style="fill:#263238"></path><path d="M451.06,149.62c.27,0,.52-1.35,1.68-2.42s2.55-1.27,2.54-1.53-.36-.25-1-.18a4,4,0,0,0-2.2,1.06,3.78,3.78,0,0,0-1.17,2.1C450.82,149.25,450.94,149.61,451.06,149.62Z" style="fill:#263238"></path><path d="M465.87,143.22a1.47,1.47,0,0,0,2.05.12,1.4,1.4,0,0,0,.21-2,1.47,1.47,0,0,0-2.05-.13A1.41,1.41,0,0,0,465.87,143.22Z" style="fill:#263238"></path><path d="M462.59,139.79c.26,0,.52-1.35,1.68-2.41s2.54-1.28,2.54-1.54-.37-.25-1-.17a4,4,0,0,0-2.19,1.05,3.87,3.87,0,0,0-1.18,2.1C462.35,139.42,462.46,139.79,462.59,139.79Z" style="fill:#263238"></path><path d="M466.76,152.11a10.8,10.8,0,0,0-2.2,1.41c-.32.24-.66.44-.89.29a2.11,2.11,0,0,1-.62-1.06c-.38-1-.79-2-1.21-3.07-1.76-4.33-3.32-7.78-3.5-7.71s1.11,3.64,2.87,8l1.26,3a2.29,2.29,0,0,0,.93,1.3,1,1,0,0,0,.88,0,2.45,2.45,0,0,0,.57-.39A10.36,10.36,0,0,0,466.76,152.11Z" style="fill:#263238"></path><path d="M460.34,137.15c.42.16,1.14-1.05,2.35-2.19s2.45-1.85,2.29-2.27c-.09-.19-.55-.26-1.21-.11a4.92,4.92,0,0,0-2.21,1.25,4.83,4.83,0,0,0-1.32,2.15C460.07,136.62,460.14,137.07,460.34,137.15Z" style="fill:#263238"></path><path d="M447,145.26c.48,0,1.19-1.09,2.33-2.14s2.28-1.73,2.25-2.21c0-.22-.41-.35-1.06-.22a4.92,4.92,0,0,0-2.31,1.28,4.86,4.86,0,0,0-1.39,2.22C446.66,144.83,446.77,145.22,447,145.26Z" style="fill:#263238"></path><path d="M478.94,132.22c.08-.17,3.76-6.33,8.37-1s-1.67,8.84-1.81,8.69S478.94,132.22,478.94,132.22Z" style="fill:#ae7461"></path><path d="M485.38,136.47s.14,0,.36-.07a1.28,1.28,0,0,0,.71-.59,3,3,0,0,0-.73-3,4,4,0,0,0-1.41-1.1,1.42,1.42,0,0,0-1.31-.11.62.62,0,0,0-.32.73c.05.21.18.29.16.32s-.19,0-.34-.24a.78.78,0,0,1-.08-.52,1,1,0,0,1,.39-.58,1.7,1.7,0,0,1,1.68,0,4.05,4.05,0,0,1,1.61,1.2c.89,1.09,1.22,2.57.64,3.46a1.3,1.3,0,0,1-1,.59C485.5,136.59,485.37,136.5,485.38,136.47Z" style="fill:#6f4439"></path><path d="M442.27,136c-1.27.26-1.07-4.75.24-7.53,2-4.21,6.11-9.29,9.79-11,4.43-2,8.91-2.79,13.47-1.07a27.57,27.57,0,0,1,11.53,8.72,8.42,8.42,0,0,1,2,3.91c.26,1.82-.53,3.78.92,5.36a2.94,2.94,0,0,1,.84,2.11c-.09,1.87-2.12,1.92-3.51,1.41-3-1.09-5.23-3.48-7.38-5.79a20.71,20.71,0,0,1-4-5.38c-.5-1.11-.8-2.31-1.36-3.4a4.22,4.22,0,0,0-2.66-2.34,4.11,4.11,0,0,0-.81-.07,7.34,7.34,0,0,0-6.43,3.67c-2.1,3.63-5.88,9.61-8.1,9.74a10.71,10.71,0,0,1-4.46-.39Z" style="fill:#263238"></path><path d="M471.16,149.64c-.19.15.85,1.38.53,3.15s-1.74,2.74-1.6,2.92.49,0,1.06-.46a4,4,0,0,0,1.4-2.37,3.52,3.52,0,0,0-.52-2.57C471.64,149.75,471.24,149.56,471.16,149.64Z" style="fill:#263238"></path></g><path d="M478.93,126.87c1.43-6.68,1.39-10.56-.75-14.26l-41,36.2s5.72.88,9.15-1.05l-1.71-2.53s20.14-18.47,28-19.92l3.47-.8Z" style="fill:#455a64"></path><path d="M470.63,122.78s9.58,10.08,14.76,19.45c5.37,9.72-3,20.06-3,20.06s4.85-13-2-21.72c-6.24-7.91-12.73-15.24-12.73-15.24Z" style="fill:#455a64"></path></g><path d="M469.71,108.91s3.85.61,4.21,1.81c.25.86-16.43,6.68-16.43,6.68l-.31-3.4,4.93-4Z" style="fill:#263238"></path><path d="M461.86,102.92s1.68.19,1.49,2.37l-.24,2.63a35.11,35.11,0,0,1,6.95,1.09s-7.3,2.13-10.4,6.41a.37.37,0,0,0,.47.55c3.07-1.64,11.24-5.85,13.54-5.63a6,6,0,0,1,3.31,1.22,9.3,9.3,0,0,1,3.1,8.63l-.61,3.88-6.2-.47a9.2,9.2,0,0,0-6.56,2.1c-4.2,3.49-12.68,9.34-14.49,10.92-1.51,1.33-11.94,11.89-14.51,12.13s-5.17.72-4.94-1.61,1.74-13.95,5.44-21.89a37.19,37.19,0,0,1,9.48-12.48s12.26-10.26,14.17-9.85" style="fill:#455a64"></path><path d="M472.32,110.23a19,19,0,0,1-2.86,1.54c-1.8.88-4.29,2.07-7.07,3.36l-2,.93a.61.61,0,0,1-.79-.29.58.58,0,0,1,0-.45.75.75,0,0,1,.11-.2l.09-.1c.22-.27.45-.53.68-.77a13.62,13.62,0,0,1,2.77-2.25,12.55,12.55,0,0,1,2.15-1.06,2.42,2.42,0,0,1,.85-.22c0,.09-1.16.49-2.8,1.6a15,15,0,0,0-2.61,2.26c-.22.24-.43.5-.64.76s-.1.13-.1.2a.09.09,0,0,0,.12,0l2-.94c2.77-1.28,5.29-2.42,7.13-3.22A21.77,21.77,0,0,1,472.32,110.23Z" style="fill:#263238"></path><path d="M448.29,120.17a11.63,11.63,0,0,1,1.65-2.38,36.76,36.76,0,0,1,10.7-8.94,11.62,11.62,0,0,1,2.64-1.2,23.27,23.27,0,0,1-2.45,1.53,49.94,49.94,0,0,0-5.63,4,48.69,48.69,0,0,0-5,4.82A25,25,0,0,1,448.29,120.17Z" style="fill:#263238"></path><path d="M457.39,118.67a1,1,0,0,0-.72-.57,3.81,3.81,0,0,0-1.25-.11,3.31,3.31,0,0,0-2.41,2.1c-.41,1.12,1.17,1.81,2,1.54a4.25,4.25,0,0,0,2-1.7A1.44,1.44,0,0,0,457.39,118.67Z" style="fill:#263238"></path><path d="M450.57,124.53a1,1,0,0,0-.72-.56,3.82,3.82,0,0,0-1.25-.12,3.33,3.33,0,0,0-2.41,2.11c-.41,1.11,1.17,1.81,2,1.53a4.23,4.23,0,0,0,2-1.69A1.46,1.46,0,0,0,450.57,124.53Z" style="fill:#263238"></path></g><path d="M478.11,123.38c0,.05-.7-.16-2-.25a14.68,14.68,0,0,0-5.36.65,22.29,22.29,0,0,0-7.08,3.79c-2.44,1.83-4.83,4.2-7.46,6.58A103.87,103.87,0,0,1,441.66,145c-2,1.22-3.6,2.17-4.73,2.81l-1.31.72a1.71,1.71,0,0,1-.47.22s.13-.12.42-.31l1.26-.81,4.62-3a114.73,114.73,0,0,0,14.41-10.91c2.61-2.37,5-4.74,7.52-6.58a22.07,22.07,0,0,1,7.27-3.75,13.77,13.77,0,0,1,5.49-.5,9.34,9.34,0,0,1,1.48.28A1.63,1.63,0,0,1,478.11,123.38Z" style="fill:#263238"></path></g><g><path d="M496.29,162.22s-11.51,2.53-11.94,11.7-1.15,42.85-1.74,45.1-31.77,32.28-31.77,32.28l11.81,6.7s33.94-20.84,40.28-33.34c2.73-5.41,8.26-50.14,8.52-55.52S504.59,159,496.29,162.22Z" style="fill:#ae7461"></path><path d="M450.9,250.07s-5.42-1-6-.86a68.28,68.28,0,0,0-7.61,5.8c-.95,1.05-1.9,5.33,0,6.94l1.17.86s.16,3.22,2.44,3.75,2.29,0,2.29,0-.76,2.81,1.8,2.81h2.57s1.61,2.75,3.33,1.9,8.25-5.54,9-7.44,1.38-3.52,1.38-3.52l4.19-3.37-10.73-11.05Z" style="fill:#263238"></path><path d="M503.2,224a17.25,17.25,0,0,1,.42-2.81c.36-1.91.78-4.2,1.25-6.74s1-5,1.36-6.73a15.55,15.55,0,0,1,.7-2.75,13.45,13.45,0,0,1-.33,2.82c-.27,1.74-.69,4.13-1.2,6.76s-1,5-1.41,6.71A12.25,12.25,0,0,1,503.2,224Z" style="fill:#6f4439"></path></g><g><path d="M481.15,174.89c.11.5,24,21.12,28.47,23.75S553.45,205,553.45,205s10.13-12.75,13.41-17.28c3-4.13,11.24-11.47,15.06-12.35,7.39-1.71,10.22-2.2,10.22-2.2s-4.47-11-29.07-18.88-46.45-11.54-60.88-8.31c-11.95,2.67-10,1.95-10,1.95Z" style="fill:#455a64"></path><path d="M481.89,202.86l25.65,1.5s4.16-28.78,3.74-34.37-4.67-16.46-13.64-15.73-14.8,9.26-14.92,20.59S481.89,202.86,481.89,202.86Z" style="fill:#ebebeb"></path><polygon points="482.04 199.19 508 201.11 508.62 196.54 482.2 195.02 482.04 199.19" style="fill:#455a64"></polygon></g><g><path d="M551.14,220.65s-2.27,52.63-2,62.16,10.52,76.45,10.52,76.45l17.56.32s1.26-40.62,2.1-52.26-.23-22.24,0-26.09S588,238.77,589.64,232s2.11-9.06,3.92-12.69,5.59-14.13,5.9-18c1.2-14.75-5-23.92-5-23.92L560,202.5Z" style="fill:#263238"></path><g><polygon points="559.22 361.26 556.62 339.42 578.82 340.51 577.78 361.5 571.04 368.46 561.12 366.65 559.22 361.26" style="fill:#263238"></polygon><g><path d="M539.65,385.24s7.47,1.29,13.62.05,15.09-4.47,18.38-5.62,13.25-1.1,13.55-4.62-7.43-15.47-7.43-15.47-1.17,3.93-4.6,4.19-10.28-.77-10.28-.77-3.39-4.14-5.37-4.08-.7,5.55-.7,5.55-4,7.25-7.15,9.07-3.13,2.85-7,3.39a10.34,10.34,0,0,0-5.51,2.16s-1.4,3.34-.37,4.37A10.72,10.72,0,0,0,539.65,385.24Z" style="fill:#455a64"></path><path d="M536.78,383.4a7.83,7.83,0,0,0,2.87,1.89s7.46,1.29,13.62,0,15.08-4.47,18.37-5.62,13.25-1.1,13.55-4.62a5.8,5.8,0,0,0-.48-2.87s-9.65,3.82-14.46,4.29-14.68,5-20.11,5.6a67.11,67.11,0,0,1-11.7,0l-1.9-.76C536.42,382.14,536.21,382.71,536.78,383.4Z" style="fill:#e0e0e0"></path><path d="M550.78,372.46a11.36,11.36,0,0,0,.87,1.71,12.6,12.6,0,0,0,1.33,1.36,3.25,3.25,0,0,1-2.2-3.07Z" style="fill:#fff"></path><path d="M553.59,369.33a11.88,11.88,0,0,0,1.18,2,11,11,0,0,0,1.76,1.45,3.19,3.19,0,0,1-2-1.25A3.24,3.24,0,0,1,553.59,369.33Z" style="fill:#fff"></path><path d="M555.51,366.42c.08-.05.62.62,1.41,1.29s1.54,1.11,1.5,1.2a4.9,4.9,0,0,1-2.91-2.49Z" style="fill:#fff"></path><path d="M575.15,371.47a5.16,5.16,0,0,1-1.25.4c-.79.2-1.89.44-3.11.63s-2.35.31-3.16.37a5.15,5.15,0,0,1-1.32,0c0-.09,2-.29,4.43-.68S575.13,371.38,575.15,371.47Z" style="fill:#fff"></path></g></g><path d="M553,314.24a3.72,3.72,0,0,1-.11-.55c-.06-.41-.15-.95-.25-1.62-.21-1.47-.5-3.53-.86-6.12-.71-5.3-1.71-12.74-2.89-21.53h0v0c0-6.48.13-13.77.38-21.44.48-14.23,1.12-27.1,1.38-36.42.11-4.63.21-8.39.28-11,0-1.27,0-2.27.06-3,0-.32,0-.57,0-.78a.14.14,0,1,1,.06,0c0,.21,0,.46,0,.78,0,.73,0,1.73,0,3,0,2.61,0,6.39-.11,11-.16,9.33-.75,22.2-1.23,36.43-.25,7.67-.4,14.94-.42,21.42v0c1.1,8.8,2,16.25,2.7,21.55.31,2.6.55,4.67.72,6.14.08.68.13,1.22.18,1.63A3.92,3.92,0,0,1,553,314.24Z" style="fill:#455a64"></path><path d="M569.08,358.34a2.24,2.24,0,0,1,0-.42c0-.3,0-.71,0-1.22,0-1.11,0-2.69,0-4.71,0-4.12-.1-10-.17-17.31s-.21-16-.34-25.68c-.08-4.83-.2-9.9-.37-15.16-.1-2.62-.21-5.29-.39-8-.1-1.33-.33-2.68-.32-4.1a41.85,41.85,0,0,1,.25-4.18c.55-5.56,1.4-10.95,2.23-16.14s1.72-10.19,2.58-15c1.73-9.52,3.38-18.06,4.8-25.24s2.61-13,3.44-17c.43-2,.76-3.53,1-4.61.11-.5.2-.9.27-1.19a2.13,2.13,0,0,1,.11-.41,2.07,2.07,0,0,1-.06.42c0,.29-.12.69-.22,1.2-.2,1.09-.5,2.64-.88,4.63l-3.28,17c-1.37,7.18-3,15.73-4.68,25.25-.84,4.75-1.71,9.75-2.55,14.94s-1.66,10.58-2.22,16.12c-.12,1.38-.25,2.76-.25,4.12s.22,2.7.32,4.06c.19,2.72.29,5.4.39,8,.16,5.26.27,10.33.34,15.16.15,9.67.2,18.37.22,25.68s0,13.2,0,17.32c0,2,0,3.6,0,4.71,0,.51,0,.92,0,1.22A2.24,2.24,0,0,1,569.08,358.34Z" style="fill:#FF725E"></path></g></g></g></g><g id="freepik--character-1--inject-43"><g><g><path d="M222.24,215.83s-2.26,52.63-2,62.16,10.52,76.45,10.52,76.45l17.56.32s1.26-40.62,2.1-52.26-.23-22.24,0-26.09,8.73-42.46,10.37-49.25,2.11-9.06,3.92-12.69,5.59-14.13,5.9-18c1.2-14.75-5-23.93-5-23.93l-34.46,25.12Z" style="fill:#ffbf9d"></path><g><polygon points="230.33 356.44 227.73 334.6 249.93 335.69 248.89 356.68 242.15 363.64 232.23 361.83 230.33 356.44" style="fill:#263238"></polygon><g><path d="M210.76,380.42s7.46,1.29,13.62.05,15.09-4.47,18.38-5.63,13.25-1.09,13.55-4.61-7.43-15.47-7.43-15.47-1.17,3.93-4.6,4.19-10.28-.77-10.28-.77-3.39-4.14-5.37-4.08-.7,5.55-.7,5.55-4,7.25-7.15,9.07-3.13,2.85-7,3.39a10.34,10.34,0,0,0-5.51,2.16s-1.4,3.34-.37,4.37A10.72,10.72,0,0,0,210.76,380.42Z" style="fill:#455a64"></path><path d="M207.89,378.58a7.83,7.83,0,0,0,2.87,1.89s7.46,1.29,13.62,0,15.08-4.47,18.37-5.62,13.25-1.1,13.55-4.62a5.8,5.8,0,0,0-.48-2.87s-9.65,3.82-14.47,4.29-14.67,5-20.1,5.6a67.11,67.11,0,0,1-11.7,0l-1.9-.76C207.53,377.32,207.32,377.89,207.89,378.58Z" style="fill:#e0e0e0"></path><path d="M221.89,367.64a11.36,11.36,0,0,0,.87,1.71,12.6,12.6,0,0,0,1.33,1.36,3.21,3.21,0,0,1-2.2-3.07Z" style="fill:#fff"></path><path d="M224.7,364.51a11.58,11.58,0,0,0,1.18,1.95,10.77,10.77,0,0,0,1.76,1.46,3.19,3.19,0,0,1-2-1.25A3.24,3.24,0,0,1,224.7,364.51Z" style="fill:#fff"></path><path d="M226.62,361.6c.08-.05.62.62,1.41,1.29a17.15,17.15,0,0,1,1.49,1.2,3.68,3.68,0,0,1-1.7-.95A3.6,3.6,0,0,1,226.62,361.6Z" style="fill:#fff"></path><path d="M246.26,366.65a5.16,5.16,0,0,1-1.25.4c-.79.2-1.89.44-3.11.63s-2.35.31-3.16.37a5.15,5.15,0,0,1-1.32,0c0-.09,2-.29,4.42-.68S246.24,366.56,246.26,366.65Z" style="fill:#fff"></path></g></g><path d="M221.66,222.31l-.76,27.58,34.67,3.58,6.87-33.68s5.48-9.33,7.6-16.44c1.5-5,4.42-18.06-4.49-31.07Z" style="fill:#263238"></path></g><g><g><path d="M121.23,235.62s-12.14-4.93-13-8.08-2.43-5.73-4.72-3.44-3.38,5.82.18,10.1l12,7.65,5.49-4.5Z" style="fill:#263238"></path><path d="M99.11,254.85a11.63,11.63,0,0,0,4-4.1c1-2.16.71-4.39.38-6.66-.43-3-.61-7.91,3-9.18a2,2,0,0,0,1.35-2.37,1.93,1.93,0,0,0-2.37-1.35c-4.12,1.46-6,5.58-6,9.73,0,2.2.61,4.34.6,6.52,0,1.91-1.4,3-2.83,4.07a2,2,0,0,0-.7,2.65,2,2,0,0,0,2.65.69Z" style="fill:#263238"></path><g><path d="M125.9,401l-1.67-28.31,3.32,28.16ZM96.42,395.8l-1.34-.64,13-25.29ZM156.07,390l-14.39-20.15-18-24.3.42-.31L141.77,370h0Zm.34-.25L141.77,370l-1.58-2.21Zm-83.51-13,20.69-15.92L72.35,376l21.27-15.2,22.87-17.59.61.82L94.7,360Zm51.39-3.15-3.17-27.31,3.11,26.46Zm-16.6-2.86,11.36-25-10.92,24.19ZM175.54,367l-49.19-24.6L175.56,367ZM61.11,349.21l-.14-.83,27.21-4,27.09-4.73-25.36,4.48,25.48-3.75-25.48,3.75Zm121.18-10.92h-55l55-.05Zm-66.82-2.53-26.26-8.2-26.56-7.08,25.5,6.75L63,319.36l25.19,7.87,27.66,7.32Zm11.54,0-.27-.77L152.79,326l25.72-9.59-24.08,9,24.32-8.36-24.36,8.37Zm-9.88-3.34L97.68,312.94,77.13,294.69l20,17.68L78.24,293.5l18.88,18.88,21.2,18.75Zm8-.27-.49-.47,19.11-19.91,18.55-20.17-17.12,18.68L162.67,292l-17.55,18.29L162.68,292l-17.62,18.35Zm18.62-20.38-.07.07Zm-21.08,18.71-.23-.06,6.78-27.94,6.05-25.54-4.59,19.53,4.72-19.5-4.75,19.62,4.75-19.62-4.92,20.32Zm6.55-28-.3,1.22Zm-9.16,28-8.2-27.06-7.93-25.52,6.48,20.73-6.3-20.78,6.32,20.85-6.32-20.85,6.47,21.33,9.76,31.22Zm-8.2-27.06.23.75Z" style="fill:#e0e0e0"></path><g><path d="M121.23,401.24a62.13,62.13,0,1,1,62.13-62.13A62.2,62.2,0,0,1,121.23,401.24Zm0-121.25a59.13,59.13,0,1,0,59.13,59.12A59.19,59.19,0,0,0,121.23,280Z" style="fill:#e0e0e0"></path><path d="M121.23,405.3a66.19,66.19,0,1,1,66.19-66.19A66.26,66.26,0,0,1,121.23,405.3Zm0-128.37a62.19,62.19,0,1,0,62.19,62.18A62.25,62.25,0,0,0,121.23,276.93Z" style="fill:#263238"></path><path d="M180.45,339.31s0-.32-.06-1,0-1.58-.13-2.81a60,60,0,0,0-1.71-10.68A59.33,59.33,0,0,0,172,309.12a59.94,59.94,0,0,0-15-16.77,58.13,58.13,0,0,0-11.28-6.73,57.46,57.46,0,0,0-13.58-4.28,59,59,0,1,0,0,115.94,59,59,0,0,0,24.85-11,59.25,59.25,0,0,0,21.58-32.51,60.6,60.6,0,0,0,1.7-10.68c.11-1.23.09-2.18.13-2.81s.06-1,.06-1,0,1.3-.08,3.78a58.21,58.21,0,0,1-8.12,26.56,59.83,59.83,0,0,1-15,16.92,59.23,59.23,0,0,1-25,11.15,59.43,59.43,0,1,1,0-116.82,59.2,59.2,0,0,1,25,11.15,59.83,59.83,0,0,1,15,16.92,59.16,59.16,0,0,1,6.51,15.84,58.56,58.56,0,0,1,1.61,10.72C180.49,338,180.45,339.31,180.45,339.31Z" style="fill:#263238"></path></g></g><polygon points="251.46 258.77 259.51 223.26 265.78 223.26 258.13 260.73 251.46 258.77" style="fill:#e0e0e0"></polygon><rect x="139.91" y="232.95" width="7.15" height="20.33" transform="translate(-122.77 149.31) rotate(-40.04)" style="fill:#e0e0e0"></rect><g><path d="M313.24,400.16l-1.67-28.31L314.88,400Zm-29.49-5.23-1.34-.65L295,369.84l11.37-25L295.46,369l12.18-23.59L295.46,369Zm59.65-5.83L329,369l-18-24.29.43-.31,17.66,24.72h0Zm.35-.25L329.1,369.08l-1.58-2.21Zm-83.51-13,20.69-15.92-21.25,15.18L281,359.92l22.88-17.6.61.82-22.4,16Zm51.38-3.14-3.16-27.32,3.11,26.46Zm51.26-6.55-49.2-24.6,49.22,24.56ZM248.44,348.33l-.1-.58,27.18-4.25,27.08-4.73L278,343.12l24.72-3.86L278,343.12Zm121.18-10.92h-55l55-.05Zm-66.81-2.52-26.27-8.21L250,319.6l25.49,6.75-25.17-7.87,25.19,7.87,27.66,7.32Zm11.54,0-.27-.76,26.05-9,25.72-9.59-24.08,9,24.32-8.36-24.36,8.37Zm-9.88-3.33L285,312.06l-20.56-18.25,20,17.68-18.87-18.86,18.87,18.87,21.21,18.76Zm7.95-.28-.5-.47L331,310.86l18.55-20.16-17.13,18.68L350,291.1l-17.55,18.28L350,291.1,332.4,309.44ZM331,310.86l-.07.07ZM310,329.57l-.23-.05,6.78-28L322.56,276,318,295.55l4.73-19.48-4.76,19.6,4.76-19.6-4.92,20.3Zm6.54-28-.29,1.22Zm-9.15,28-9.66-31.86,0,.06L291.4,276.9l6.47,21.33,9.75,31.22Zm-8.2-27.07L291.22,277Z" style="fill:#e0e0e0"></path><g><path d="M308.57,400.36a62.13,62.13,0,1,1,62.12-62.12A62.2,62.2,0,0,1,308.57,400.36Zm0-121.25a59.13,59.13,0,1,0,59.12,59.13A59.2,59.2,0,0,0,308.57,279.11Z" style="fill:#e0e0e0"></path><path d="M308.57,404.42a66.19,66.19,0,1,1,66.18-66.18A66.26,66.26,0,0,1,308.57,404.42Zm0-128.37a62.19,62.19,0,1,0,62.18,62.19A62.26,62.26,0,0,0,308.57,276.05Z" style="fill:#263238"></path><path d="M367.78,338.43s0-.32,0-1,0-1.58-.13-2.81A60.73,60.73,0,0,0,365.89,324a59.23,59.23,0,0,0-21.58-32.52,59,59,0,0,0-24.85-11,59,59,0,1,0,0,115.94A57.91,57.91,0,0,0,333,392.13a58.67,58.67,0,0,0,11.28-6.74,59.3,59.3,0,0,0,21.57-32.51,60.87,60.87,0,0,0,1.71-10.67c.11-1.24.09-2.18.13-2.82s0-1,0-1,0,1.31-.08,3.78a57.46,57.46,0,0,1-1.61,10.72,59.27,59.27,0,0,1-6.5,15.85,60,60,0,0,1-15,16.91,59.2,59.2,0,0,1-25,11.15,59.43,59.43,0,1,1,0-116.81,59.06,59.06,0,0,1,25,11.14,59.88,59.88,0,0,1,15,16.92,59.09,59.09,0,0,1,6.5,15.84,57.69,57.69,0,0,1,1.61,10.72C367.82,337.13,367.78,338.43,367.78,338.43Z" style="fill:#263238"></path></g></g><path d="M116.81,339,148,256.58l-6.23-8.2,7.15-5.27,7.32,8.72,97.53,2.9,5.94.74s34.37,55.9,40.43,63.5c6.47,8.12,14,18.21,14,18.21l-6.26,4.1s-17.09-20.88-25.63-35-24.68-40.43-24.68-40.43L235.44,353l-7.84-1.34L248,262.79l-86.82-2.06,69.62,78.15-3.18,12.73L154.38,267,124.6,341.2Z" style="fill:#FF725E"></path><polygon points="234.5 345.06 307.33 335.69 308.57 341.18 234.5 352.95 234.5 345.06" style="fill:#FF725E"></polygon><path d="M240.87,222.6a2.24,2.24,0,0,1-1.27-4,9.69,9.69,0,0,1,5.67-1.8c7.2-.23,47.22,0,47.22,0s1.46,2.09-1.35,4.41-10.49,4.63-14.64,4.63-15.86-1.93-22.2-2.55C250.39,222.88,244.68,222.69,240.87,222.6Z" style="fill:#455a64"></path><g><path d="M127.76,339.11a6.57,6.57,0,1,1-6.56-6.56A6.56,6.56,0,0,1,127.76,339.11Z" style="fill:#e0e0e0"></path><path d="M127.76,339.11c-.05,0,0-.58-.3-1.57a6.57,6.57,0,0,0-2.4-3.49,6.39,6.39,0,0,0-6-.87,6.29,6.29,0,0,0-2.93,2.21,6.3,6.3,0,0,0,0,7.45,6.29,6.29,0,0,0,2.93,2.21,6.39,6.39,0,0,0,6-.87,6.57,6.57,0,0,0,2.4-3.49c.27-1,.25-1.58.3-1.58a1.34,1.34,0,0,1,0,.43,5.21,5.21,0,0,1-.14,1.2,6.5,6.5,0,0,1-2.37,3.74,6.76,6.76,0,0,1-9.59-1.33,6.79,6.79,0,0,1,0-8.07,6.76,6.76,0,0,1,9.59-1.33,6.5,6.5,0,0,1,2.37,3.74,5.21,5.21,0,0,1,.14,1.2A1.24,1.24,0,0,1,127.76,339.11Z" style="fill:#263238"></path></g><path d="M130.93,261.33a16.51,16.51,0,0,1-11.09-5.85A11.31,11.31,0,0,1,118,244.32c1.63-3.9,5.28-5.52,9.29-5.79,5.14-.36,10.39,0,15.54.16q9.18.26,18.34.73c3.32.17,3.31-5,0-5.15q-9.42-.5-18.85-.75c-3.06-.09-6.12-.15-9.18-.2a50.89,50.89,0,0,0-8.46.35A14.49,14.49,0,0,0,113,243a16.15,16.15,0,0,0,2.14,14.82c3.71,5.25,9.52,8,15.77,8.72a2.6,2.6,0,0,0,2.58-2.58,2.65,2.65,0,0,0-2.58-2.58Z" style="fill:#e0e0e0"></path><polygon points="251.46 255.95 252.79 250.12 260.92 250.12 259.69 256.79 252.17 258.48 251.46 255.95" style="fill:#FF725E"></polygon><g><path d="M171.67,150.59S160,151.92,158.59,161s-3.9,38.8-4.72,41-24.81,42.21-24.81,42.21l7.85,11.32s29.5-36.62,35.77-49.16,12.54-42,13.36-47.3S180.26,148.26,171.67,150.59Z" style="fill:#ffbf9d"></path><path d="M124.56,247.73s-5.42-1-6-.85a67,67,0,0,0-7.6,5.8c-1,1-1.91,5.32,0,6.94l1.16.85s.17,3.23,2.45,3.75,2.28,0,2.28,0-.76,2.81,1.81,2.81h2.56s1.62,2.76,3.33,1.9,8.25-5.54,9-7.44S135,258,135,258l4.2-3.37-10.74-11Z" style="fill:#263238"></path></g><g><circle cx="308.54" cy="338.24" r="6.57" style="fill:#e0e0e0"></circle><path d="M315.1,338.24c-.06,0,0-.59-.31-1.58a6.49,6.49,0,0,0-2.4-3.49,6.33,6.33,0,0,0-8.93,8.79,6.21,6.21,0,0,0,2.92,2.21,6.38,6.38,0,0,0,6-.87,6.46,6.46,0,0,0,2.4-3.49c.27-1,.25-1.58.31-1.57s0,.14,0,.42a5.16,5.16,0,0,1-.13,1.21,6.56,6.56,0,0,1-2.38,3.74,6.79,6.79,0,1,1,0-10.74,6.56,6.56,0,0,1,2.38,3.74,5.16,5.16,0,0,1,.13,1.21A1.18,1.18,0,0,1,315.1,338.24Z" style="fill:#263238"></path></g></g><g><rect x="220.94" y="382.66" width="19.62" height="7.02" transform="translate(-127.93 114.65) rotate(-22.01)" style="fill:#263238"></rect><path d="M223,393.13v0l-2.63-6.53h0l18.21-7.36v0l2.64,6.53h0Zm-2.58-6.52,2.61,6.46,18.14-7.34-2.61-6.45Z" style="fill:#455a64"></path></g><g><path d="M230.51,386.15h0a3.36,3.36,0,0,1-3-3.62l2.31-26.73a3.34,3.34,0,0,1,3.62-3h0a3.35,3.35,0,0,1,3.05,3.62l-2.31,26.72A3.34,3.34,0,0,1,230.51,386.15Z" style="fill:#263238"></path><path d="M230.51,386.15s.27,0,.75-.08a3.33,3.33,0,0,0,1.84-1,3.2,3.2,0,0,0,.76-1.3,9.66,9.66,0,0,0,.22-1.83c.1-1.34.22-2.86.35-4.54.28-3.39.6-7.39,1-11.83q.29-3.35.59-7c.05-.61.1-1.22.16-1.83a3.57,3.57,0,0,0-.14-1.73,3.08,3.08,0,0,0-5.57-.49,3.52,3.52,0,0,0-.43,1.68c-.06.62-.11,1.23-.16,1.84q-.33,3.63-.62,7c-.41,4.43-.77,8.43-1.08,11.82-.16,1.67-.3,3.19-.43,4.54a9.12,9.12,0,0,0-.1,1.83,3.22,3.22,0,0,0,.53,1.41,3.38,3.38,0,0,0,1.65,1.28c.46.16.73.17.72.2a2.31,2.31,0,0,1-.76-.1,3.34,3.34,0,0,1-1.78-1.26,3.39,3.39,0,0,1-.61-1.5,9.3,9.3,0,0,1,0-1.89c.11-1.35.22-2.87.35-4.55.28-3.38.6-7.38,1-11.82.19-2.23.39-4.57.59-7,.05-.6.1-1.22.16-1.83a4.1,4.1,0,0,1,.49-1.9,3.61,3.61,0,0,1,6.54.57,4.1,4.1,0,0,1,.17,1.95c-.06.62-.11,1.23-.17,1.83-.21,2.42-.42,4.76-.61,7-.41,4.44-.77,8.44-1.08,11.82-.16,1.68-.3,3.19-.43,4.54a9.26,9.26,0,0,1-.27,1.88,3.57,3.57,0,0,1-.86,1.36,3.3,3.3,0,0,1-2,.94A2.16,2.16,0,0,1,230.51,386.15Z" style="fill:#455a64"></path></g><circle cx="231.62" cy="351.69" r="17.52" transform="translate(-163.62 497.01) rotate(-76.82)" style="fill:#e0e0e0"></circle><g><rect x="222.05" y="318.73" width="19.62" height="7.02" transform="translate(584.56 504.45) rotate(153.06)" style="fill:#263238"></rect><path d="M224.7,329.84l0,0-3.19-6.28h0l17.51-8.9v0l3.19,6.28h0Zm-3.14-6.28,3.16,6.21,17.44-8.86L239,314.7Z" style="fill:#455a64"></path></g><circle cx="231.86" cy="351.59" r="10.01" style="fill:#263238"></circle><g><path d="M232.1,322.24h0a3.35,3.35,0,0,1,3.34,3.34v26.83a3.34,3.34,0,0,1-3.34,3.34h0a3.34,3.34,0,0,1-3.35-3.34V325.58A3.35,3.35,0,0,1,232.1,322.24Z" style="fill:#263238"></path><path d="M232.1,322.24s-.27,0-.74.14a3.32,3.32,0,0,0-1.76,1.13,3.44,3.44,0,0,0-.64,1.36,9.75,9.75,0,0,0-.06,1.83c0,1.36,0,2.88,0,4.56,0,3.4,0,7.42.06,11.87,0,2.24,0,4.58,0,7V352a3.62,3.62,0,0,0,.29,1.71,3.07,3.07,0,0,0,5.59,0,3.62,3.62,0,0,0,.29-1.71v-1.84c0-2.43,0-4.77,0-7,0-4.45,0-8.47.05-11.87,0-1.68,0-3.2,0-4.56a9,9,0,0,0-.06-1.83,3.26,3.26,0,0,0-2.39-2.49c-.48-.12-.75-.11-.74-.14a2.09,2.09,0,0,1,.76,0,3.39,3.39,0,0,1,2.62,2.54,9,9,0,0,1,.11,1.89c0,1.36,0,2.88,0,4.56,0,3.4,0,7.42.06,11.87,0,2.24,0,4.58,0,7V352a4.13,4.13,0,0,1-.33,1.93,3.61,3.61,0,0,1-6.57,0,4.13,4.13,0,0,1-.33-1.93c0-.62,0-1.23,0-1.84,0-2.43,0-4.77,0-7,0-4.45,0-8.47.06-11.87,0-1.68,0-3.2,0-4.56a9,9,0,0,1,.11-1.89,3.34,3.34,0,0,1,.73-1.43,3.38,3.38,0,0,1,1.89-1.11A2.16,2.16,0,0,1,232.1,322.24Z" style="fill:#455a64"></path></g></g><g><path d="M143.41,91.1s3.88.35,4.31,1.52c.31.85-16,7.74-16,7.74L131.24,97l4.66-4.27Z" style="fill:#FF725E"></path><g style="opacity: 0.30000000000000004"><path d="M143.41,91.1s3.88.35,4.31,1.52c.31.85-16,7.74-16,7.74L131.24,97l4.66-4.27Z"></path></g><g><g><path d="M160.08,120a74.82,74.82,0,0,0-6.18-11.2,25.85,25.85,0,0,0-9.43-8.48c-.58-.28-4.77-1.92-5.2-1.43s3.17,2.29,3.28,2.74a22,22,0,0,0,7,11A57.8,57.8,0,0,0,160.08,120" style="fill:#263238"></path><path d="M122.63,131.38a19.13,19.13,0,0,1,.36-26l.68-.72c7.81-7.33,18.4-4.79,25.51,3.22L173.13,134,176,153.64l-11,6.19c-2.1-2.17-9.81-10-9.83-10s-8.23,6.36-15.78-.62C135.77,145.84,128.83,138.29,122.63,131.38Z" style="fill:#ffbf9d"></path><path d="M155.19,149.83a24.88,24.88,0,0,0,6.34-12.43s3.39,7.65-4.34,14.46Z" style="fill:#ff9a6c"></path><path d="M131.75,135.33a1.46,1.46,0,0,0,2,0,1.4,1.4,0,0,0,.08-2,1.46,1.46,0,0,0-2,0A1.4,1.4,0,0,0,131.75,135.33Z" style="fill:#263238"></path><path d="M127.42,132.92c.27,0,.44-1.38,1.53-2.52s2.45-1.44,2.43-1.7-.38-.22-1-.11a4.05,4.05,0,0,0-2.13,1.2,3.83,3.83,0,0,0-1,2.17C127.16,132.57,127.3,132.92,127.42,132.92Z" style="fill:#263238"></path><path d="M141.79,125.58a1.47,1.47,0,0,0,2.05,0,1.41,1.41,0,0,0,.08-2,1.47,1.47,0,0,0-2,0A1.41,1.41,0,0,0,141.79,125.58Z" style="fill:#263238"></path><path d="M138.29,122.37c.26,0,.43-1.38,1.52-2.52s2.46-1.44,2.44-1.7-.38-.22-1-.11a4,4,0,0,0-2.12,1.2,3.92,3.92,0,0,0-1,2.17C138,122,138.17,122.37,138.29,122.37Z" style="fill:#263238"></path><path d="M143.25,134.4a9.89,9.89,0,0,0-2.1,1.54c-.31.26-.63.49-.88.34s-.47-.55-.68-1c-.45-1-.91-1.94-1.41-3-2-4.21-3.81-7.55-4-7.47s1.34,3.56,3.37,7.77c.51,1,1,2,1.46,3a2.37,2.37,0,0,0,1,1.24,1,1,0,0,0,.89-.08,2.76,2.76,0,0,0,.54-.43A10.68,10.68,0,0,0,143.25,134.4Z" style="fill:#263238"></path><path d="M135.88,119.88c.43.13,1.07-1.13,2.21-2.34s2.31-2,2.13-2.41c-.1-.18-.56-.23-1.21,0a5.07,5.07,0,0,0-3.31,3.61C135.58,119.36,135.68,119.81,135.88,119.88Z" style="fill:#263238"></path><path d="M123.09,128.83c.48,0,1.12-1.16,2.18-2.28s2.17-1.88,2.11-2.35c0-.23-.44-.33-1.08-.16a5,5,0,0,0-2.21,1.43,4.78,4.78,0,0,0-1.25,2.31C122.72,128.42,122.86,128.81,123.09,128.83Z" style="fill:#263238"></path><path d="M154.12,113.76c.07-.18,3.34-6.56,8.29-1.56s-1.09,8.93-1.25,8.79S154.12,113.76,154.12,113.76Z" style="fill:#ffbf9d"></path><path d="M160.82,117.59s.15,0,.36-.1a1.23,1.23,0,0,0,.66-.63,3,3,0,0,0-.91-2.92,4,4,0,0,0-1.48-1,1.43,1.43,0,0,0-1.31,0,.62.62,0,0,0-.28.75c.07.2.2.27.18.31s-.19,0-.35-.23a.76.76,0,0,1-.12-.5,1,1,0,0,1,.36-.61,1.74,1.74,0,0,1,1.68-.12,4.34,4.34,0,0,1,1.68,1.09c1,1,1.38,2.49.86,3.42a1.29,1.29,0,0,1-.93.65C161,117.7,160.81,117.62,160.82,117.59Z" style="fill:#ff9a6c"></path><path d="M117.77,119.86c-1.25.34-1.37-4.68-.25-7.54,1.69-4.32,5.5-9.66,9.06-11.58,4.29-2.32,8.71-3.36,13.38-1.94a27.67,27.67,0,0,1,12.06,8,8.25,8.25,0,0,1,2.28,3.77c.38,1.8-.28,3.81,1.27,5.29a2.91,2.91,0,0,1,1,2.05c0,1.88-2,2-3.41,1.63-3-.9-5.44-3.13-7.74-5.3a20.7,20.7,0,0,1-4.34-5.1c-.57-1.08-.94-2.26-1.57-3.31a4.22,4.22,0,0,0-2.81-2.17,4.92,4.92,0,0,0-.81,0,7.36,7.36,0,0,0-6.18,4.08c-1.86,3.76-5.25,10-7.45,10.24a10.77,10.77,0,0,1-4.48-.09Z" style="fill:#263238"></path><path d="M147.49,131.64c-.19.16.93,1.33.73,3.11s-1.56,2.85-1.42,3,.5,0,1-.53a4.06,4.06,0,0,0,1.25-2.45,3.53,3.53,0,0,0-.69-2.54C148,131.72,147.56,131.56,147.49,131.64Z" style="fill:#263238"></path></g><path d="M153.77,108.42c1-6.75.66-10.38-1.71-13.93L113.47,133s5.77.51,9.07-1.64L120.67,129s18.9-19.74,26.69-21.69l3.42-1Z" style="fill:#455a64"></path><path d="M145.22,104.88s10.21,9.44,16,18.45c6,9.36-1.72,20.22-1.72,20.22s4-13.29-3.42-21.55c-6.74-7.49-13.69-14.39-13.69-14.39Z" style="fill:#455a64"></path></g><path d="M135.18,85.62s1.7.09,1.64,2.27l-.06,2.64a35.18,35.18,0,0,1,7,.64s-7.14,2.59-10,7.07a.37.37,0,0,0,.5.51c3-1.83,10.84-6.56,13.15-6.49a6.07,6.07,0,0,1,3.38,1,9.31,9.31,0,0,1,3.65,8.42l-.36,3.92-6.21-.08A9.14,9.14,0,0,0,141.5,108c-4,3.75-12.05,10.14-13.76,11.84-1.42,1.42-11.15,12.63-13.69,13s-5.12,1.05-5-1.3.84-14,4-22.19a37.18,37.18,0,0,1,8.65-13.06s11.57-11,13.5-10.75" style="fill:#FF725E"></path><path d="M122.75,103.72a11.92,11.92,0,0,1,1.5-2.49,36.06,36.06,0,0,1,4.59-5.29,36.69,36.69,0,0,1,5.51-4.32,12.15,12.15,0,0,1,2.56-1.37,24.38,24.38,0,0,1-2.35,1.69,48.56,48.56,0,0,0-5.35,4.39,49.51,49.51,0,0,0-4.66,5.13A21.94,21.94,0,0,1,122.75,103.72Z" style="fill:#263238"></path><g style="opacity: 0.30000000000000004"><path d="M131.74,101.62a1,1,0,0,0-.76-.51,3.76,3.76,0,0,0-1.25,0,3.34,3.34,0,0,0-2.27,2.26c-.33,1.14,1.29,1.73,2.11,1.4a4.21,4.21,0,0,0,1.89-1.82A1.44,1.44,0,0,0,131.74,101.62Z"></path></g><g style="opacity: 0.30000000000000004"><path d="M123.72,109a1.54,1.54,0,0,0-.69.44,15.39,15.39,0,0,0-3.56,5.82,54.19,54.19,0,0,0-2.09,7,36.09,36.09,0,0,0,6.94-12.52.74.74,0,0,0,.05-.39A.55.55,0,0,0,123.72,109Z"></path></g><g style="opacity: 0.30000000000000004"><path d="M115.47,109.07a1.44,1.44,0,0,0-.51.63,15.4,15.4,0,0,0-1.53,6.65,45.17,45.17,0,0,0,.52,6.86,33.84,33.84,0,0,0,2.33-13.62.82.82,0,0,0-.07-.39A.55.55,0,0,0,115.47,109.07Z"></path></g><path d="M145.35,92.6a18.44,18.44,0,0,1-2.75,1.72c-1.74,1-4.15,2.35-6.84,3.81l-2,1.06a.62.62,0,0,1-.87-.69.63.63,0,0,1,.1-.2l.07-.11c.21-.28.42-.56.64-.81A13.32,13.32,0,0,1,136.34,95a12,12,0,0,1,2.08-1.2,2.68,2.68,0,0,1,.83-.28c0,.09-1.12.57-2.68,1.78a14.71,14.71,0,0,0-2.46,2.43c-.2.25-.4.52-.6.8s-.08.13-.08.2.08.06.12,0l1.95-1.06c2.69-1.46,5.13-2.76,6.92-3.68A20.88,20.88,0,0,1,145.35,92.6Z" style="fill:#263238"></path></g><g><path d="M223.68,180.36s-66.08,36.58-60,56.7,60.05,57.58,60.05,57.58L236,284.17s-21.1-27.88-27-36.86C204.56,240.6,196,235.53,196,235.53s37.28-12.81,51.88-20S268,203.9,269.13,193.43s-1.65-15.55-3.3-20.23-13.78-13.5-13.78-13.5Z" style="fill:#ffbf9d"></path><path d="M265.83,173.2c-1.66-4.69-13.78-13.5-13.78-13.5l-28.37,20.66S192.63,197.45,175,214.87l22.67,20.33s35.87-12,50.47-19.19,20.57-13.45,21.67-23.92S267.48,177.88,265.83,173.2Z" style="fill:#263238"></path><path d="M267.91,196.92a.77.77,0,0,1,0,.22c0,.15,0,.36-.06.64a14,14,0,0,1-.54,2.42,19.31,19.31,0,0,1-4.71,7.75,21.52,21.52,0,0,1-5,3.79c-2,1-4.17,2.11-6.47,3.19-4.59,2.17-9.69,4.41-15.1,6.63-10.83,4.45-20.82,8-28.1,10.41-3.65,1.2-6.62,2.1-8.68,2.7l-2.37.66a6.63,6.63,0,0,1-.84.2,4.64,4.64,0,0,1,.8-.3l2.35-.76c2-.66,5-1.61,8.61-2.86,7.25-2.48,17.2-6.1,28-10.54,5.41-2.23,10.51-4.45,15.1-6.59,2.29-1.06,4.47-2.11,6.46-3.13a21.09,21.09,0,0,0,5-3.67,19.68,19.68,0,0,0,4.78-7.54,15.87,15.87,0,0,0,.63-2.37A7.6,7.6,0,0,1,267.91,196.92Z" style="fill:#455a64"></path><g><polygon points="221.37 293.29 204.51 280.54 221.31 264.55 233.99 279.45 235.22 288.18 227.48 294.64 221.37 293.29" style="fill:#263238"></polygon><g><path d="M228,323s5.77-4.9,8.76-10.42,6.23-14.46,7.45-17.72,7.65-10.87,5.14-13.36-17-3.74-17-3.74,2.65,2.95.65,5.75-7.17,7.4-7.17,7.4-5.35,0-6.58,1.51,3.82,4.09,3.82,4.09,3,7.74,2.39,11.31.18,4.23-1.86,7.51a10.32,10.32,0,0,0-1.87,5.61s1.67,3.22,3.12,3.09A10.75,10.75,0,0,0,228,323Z" style="fill:#455a64"></path><path d="M224.74,324.06a7.82,7.82,0,0,0,3.3-1s5.77-4.91,8.76-10.43,6.23-14.45,7.45-17.71,7.64-10.88,5.13-13.36a5.69,5.69,0,0,0-2.52-1.47s-3.23,9.86-6,13.86-5.55,14.48-8.58,19a67,67,0,0,1-7.53,9l-1.79,1C223.55,323.53,223.86,324.06,224.74,324.06Z" style="fill:#e0e0e0"></path><path d="M225.32,306.31a15.33,15.33,0,0,0,1.86.42,12.69,12.69,0,0,0,1.9-.15,2.6,2.6,0,0,1-1.92.47A2.64,2.64,0,0,1,225.32,306.31Z" style="fill:#fff"></path><path d="M224.71,302.14a11.84,11.84,0,0,0,2.26.34,11.49,11.49,0,0,0,2.25-.41,4,4,0,0,1-4.51.07Z" style="fill:#fff"></path><path d="M223.71,298.8a15.81,15.81,0,0,1,1.89-.25c1-.17,1.84-.47,1.88-.39a3.58,3.58,0,0,1-1.82.7A3.54,3.54,0,0,1,223.71,298.8Z" style="fill:#fff"></path><path d="M240.16,287a4.7,4.7,0,0,1-.49,1.22c-.35.74-.87,1.73-1.51,2.8s-1.26,2-1.74,2.65a5.43,5.43,0,0,1-.84,1c-.08-.06,1-1.72,2.3-3.84S240.08,286.91,240.16,287Z" style="fill:#fff"></path></g></g><path d="M185.46,232.06a12.32,12.32,0,0,1,6,.86,16.19,16.19,0,0,1,3.85,2,8,8,0,0,0,1,.73c.26.11.43.07.45.11s-.17.16-.51.09a5,5,0,0,1-1.19-.61,22.92,22.92,0,0,0-3.82-1.83A39.49,39.49,0,0,0,185.46,232.06Z" style="fill:#ff9a6c"></path></g><g><path d="M158.33,154.27c0,.5,17.49,24.32,21.24,27.86s28,8.51,28,8.51,14.05-7.6,17.08-9.8,19-6.7,28.94-7.6c7.57-.68,12.47-.68,12.47-.68s-2.36-9-24.65-22.05-42.81-21.4-57.59-21.4H169Z" style="fill:#FF725E"></path><path d="M155.57,184.74l23.4,6.9s8.36-27.85,8.76-33.44-2.19-17-11.18-17.56-16,7-17.78,18.16S155.57,184.74,155.57,184.74Z" style="fill:#ebebeb"></path><polygon points="155.91 181.41 179.9 188.5 181.2 184.07 156.39 177.47 155.91 181.41" style="fill:#FF725E"></polygon><path d="M155.57,184.74a1.39,1.39,0,0,1,0-.36c0-.26,0-.6.07-1,.09-.93.21-2.26.37-3.94.34-3.43.86-8.39,1.67-14.49.21-1.53.44-3.13.67-4.79a39,39,0,0,1,1-5.16A23.48,23.48,0,0,1,165,144.89a15.5,15.5,0,0,1,5.24-3.52,14.15,14.15,0,0,1,6.51-1,10,10,0,0,1,6.17,2.84,15.2,15.2,0,0,1,3.67,6,23.7,23.7,0,0,1,1.32,6.1,17.61,17.61,0,0,1,0,3.08c-.1,1-.3,2-.49,3-.84,3.89-1.83,7.6-2.79,11.16-1.94,7.11-3.84,13.58-5.52,19.15l-.06.2-.2-.06-17.12-5.16-4.63-1.43-1.2-.37-.39-.14a2.93,2.93,0,0,1,.44.1l1.24.34,4.71,1.34L179,191.45l-.25.13c1.64-5.58,3.51-12.05,5.42-19.16,1-3.56,1.93-7.27,2.76-11.14a20.73,20.73,0,0,0-.83-11.88,14.71,14.71,0,0,0-3.55-5.77,9.47,9.47,0,0,0-5.84-2.7,13.81,13.81,0,0,0-6.27.91,15.07,15.07,0,0,0-5.08,3.4,23.09,23.09,0,0,0-5.56,9.85,40.63,40.63,0,0,0-1.06,5.1c-.25,1.66-.48,3.25-.71,4.78-.85,6.09-1.43,11-1.83,14.46-.2,1.68-.36,3-.47,3.94,0,.42-.1.76-.13,1A2.14,2.14,0,0,1,155.57,184.74Z" style="fill:#263238"></path><rect x="163.26" y="160.19" width="17.93" height="5.31" transform="translate(49.25 -39.78) rotate(15.35)" style="fill:#455a64"></rect><polyline points="189.77 186.28 196.65 171.8 202.08 174.51 195.24 187.78" style="fill:#455a64"></polyline></g></g></g></svg>
